<?xml version="1.0" encoding="utf-8"?>
<!-- Generator: Adobe Illustrator 28.3.0, SVG Export Plug-In . SVG Version: 6.00 Build 0)  -->
<svg version="1.1" id="Capa_1" xmlns="http://www.w3.org/2000/svg" xmlns:xlink="http://www.w3.org/1999/xlink" x="0px" y="0px"
	 viewBox="0 0 566.93 566.93" style="enable-background:new 0 0 566.93 566.93;" xml:space="preserve">
<style type="text/css">
	.st0{fill:#0071B2;}
	.st1{fill:#FFFFFF;}
	.st2{fill:#EF1615;}
	.st3{fill:url(#SVGID_1_);}
	.st4{fill:url(#SVGID_00000144340197512870712060000013097985097884296108_);}
	.st5{fill:#78B24E;}
	.st6{fill:#78B34E;}
	.st7{fill:#7CB253;}
	.st8{fill:#85AD62;}
	.st9{fill:#87AE64;}
	.st10{fill:#00578C;}
	.st11{fill:#77B34D;}
	.st12{fill:#78B34F;}
	.st13{fill:#79B24D;}
	.st14{fill:#7AB24D;}
	.st15{fill:#79B24E;}
	.st16{fill:#78B34D;}
	.st17{fill:#78B24F;}
	.st18{fill:#7BB24E;}
	.st19{fill:#7AB24E;}
	.st20{fill:#7BB150;}
	.st21{fill:#79B251;}
	.st22{fill:#7AB34C;}
	.st23{fill:#77B34E;}
	.st24{fill:#79B34D;}
	.st25{fill:#7AB34D;}
	.st26{fill:#7BB351;}
	.st27{fill:#7CB256;}
	.st28{fill:#7EB156;}
	.st29{fill:#80B158;}
	.st30{fill:#7DB357;}
	.st31{fill:#83B359;}
	.st32{fill:#81AD5A;}
	.st33{fill:#8BAE76;}
	.st34{fill:#8DAE70;}
	.st35{fill:#90AC6F;}
	.st36{fill:#89AA73;}
	.st37{fill:#05578C;}
	.st38{fill:#03578E;}
	.st39{opacity:0.42;}
	.st40{fill:#936757;}
	.st41{fill:#7C5B49;}
	.st42{fill:#6E4F41;}
	.st43{fill:#7F5E4D;}
	.st44{opacity:0.43;fill:#D6CBC4;}
	.st45{fill:#4F382E;}
	.st46{fill:#EBCDBA;}
	.st47{fill:#E8CDB9;}
	.st48{fill:url(#SVGID_00000052785945430388926700000006630940185678123189_);}
	.st49{opacity:0.55;}
	.st50{opacity:0.76;}
	.st51{opacity:0.66;fill:url(#SVGID_00000163050468300832522730000000176926336227299987_);}
	.st52{opacity:0.61;fill:url(#SVGID_00000088094479188269495150000001540857660878580384_);}
	.st53{opacity:0.66;fill:url(#SVGID_00000083799494361475112250000012252297256267538875_);}
	.st54{opacity:0.61;fill:url(#SVGID_00000011029689175910972010000015704071212498247313_);}
	.st55{opacity:0.66;fill:url(#SVGID_00000141424768452579525380000016694773451082322578_);}
	.st56{opacity:0.61;fill:url(#SVGID_00000147191864169371059160000002449665711533842363_);}
	.st57{opacity:0.66;fill:url(#SVGID_00000168831452519341829870000015125439332274407817_);}
	.st58{opacity:0.61;fill:url(#SVGID_00000047764945768384584620000003141459677125826186_);}
	.st59{opacity:0.66;fill:url(#SVGID_00000050653393513895660750000006722736013099386800_);}
	.st60{opacity:0.61;fill:url(#SVGID_00000019636671166052496690000015176200347574304947_);}
	.st61{opacity:0.66;fill:url(#SVGID_00000005225196538970962160000012212109215641485723_);}
	.st62{opacity:0.61;fill:url(#SVGID_00000142871348979132283890000011451653258526844333_);}
	.st63{opacity:0.66;fill:url(#SVGID_00000002347843200030863190000014046020488548671909_);}
	.st64{opacity:0.61;fill:url(#SVGID_00000176020605711016574060000014384199994666555573_);}
	.st65{opacity:0.66;fill:url(#SVGID_00000112610032961960798220000008384658905289257610_);}
	.st66{opacity:0.61;fill:url(#SVGID_00000016754639310435651090000006602981348867981442_);}
	.st67{opacity:0.66;fill:url(#SVGID_00000047757855031141329760000013581262070090556567_);}
	.st68{opacity:0.61;fill:url(#SVGID_00000082360247117349040030000002827592930131854774_);}
	.st69{opacity:0.66;fill:url(#SVGID_00000055696854868261934950000009981579914696143807_);}
	.st70{opacity:0.61;fill:url(#SVGID_00000108297581518355459170000004709828622134587061_);}
	.st71{opacity:0.66;fill:url(#SVGID_00000178188879952241784220000009125665663307996077_);}
	.st72{opacity:0.61;fill:url(#SVGID_00000085950204690457109720000000057008089434605204_);}
	.st73{opacity:0.66;fill:url(#SVGID_00000104696192656638348390000017495966777995917732_);}
	.st74{opacity:0.61;fill:url(#SVGID_00000101096906186326389210000010445351192248647341_);}
	.st75{opacity:0.66;fill:url(#SVGID_00000067922672980829020860000010543133577123251886_);}
	.st76{opacity:0.61;fill:url(#SVGID_00000007390713216089656860000002503985907380130216_);}
	.st77{opacity:0.66;fill:url(#SVGID_00000019672671929407146280000001586112877081097606_);}
	.st78{opacity:0.61;fill:url(#SVGID_00000078750845174461285970000005788338926427721905_);}
	.st79{opacity:0.66;fill:url(#SVGID_00000121990947663508966660000000533098469606785165_);}
	.st80{opacity:0.61;fill:url(#SVGID_00000070106230671163988060000010949235245849749903_);}
	.st81{opacity:0.66;fill:url(#SVGID_00000029022502565901235780000015618749458905954487_);}
	.st82{opacity:0.61;fill:url(#SVGID_00000167370009035258920860000013144877889267915179_);}
	.st83{opacity:0.66;fill:url(#SVGID_00000136391801988506964210000017434402746973340063_);}
	.st84{opacity:0.61;fill:url(#SVGID_00000018229642164560857700000002708649522614599585_);}
	.st85{opacity:0.66;fill:url(#SVGID_00000056400887582318782790000000340097818563712700_);}
	.st86{opacity:0.61;fill:url(#SVGID_00000109031254887961028320000003220624662999220380_);}
	.st87{fill:#A6CA56;}
	.st88{fill:#0076B3;}
	.st89{fill:none;stroke:#0076B3;stroke-width:0.0208;stroke-miterlimit:10;}
	.st90{opacity:0.12;}
	.st91{fill-rule:evenodd;clip-rule:evenodd;fill:#0076B3;stroke:#0076B3;stroke-width:0.104;stroke-miterlimit:3.8637;}
	.st92{fill-rule:evenodd;clip-rule:evenodd;fill:#C4DA8F;}
	.st93{fill-rule:evenodd;clip-rule:evenodd;fill:#FFFFFF;}
	.st94{fill:#573734;}
	.st95{fill:#8A6552;}
	.st96{opacity:0.33;fill:#6E4F41;}
	.st97{fill:#010101;}
	.st98{fill:#5C4436;}
	.st99{fill:#735345;}
	.st100{opacity:0.21;fill:#B5806B;}
	.st101{fill:#64483B;}
	.st102{fill:#D9C0AE;}
	.st103{fill:#1D1D1C;}
	.st104{fill:#EFE0CE;}
	.st105{opacity:0.6;fill:#7C3B11;}
	.st106{fill:#70554F;}
	.st107{fill:#F08588;}
	.st108{fill:#2E2E2D;}
	.st109{fill:#593A30;}
	.st110{clip-path:url(#SVGID_00000065076668078997390810000014165194993397783176_);fill:#FFFFFF;}
	.st111{clip-path:url(#SVGID_00000065076668078997390810000014165194993397783176_);}
</style>
<g>
	<rect class="st5" width="566.93" height="566.93"/>
	<rect x="28.35" y="28.35" class="st1" width="510.24" height="510.24"/>
	<g>
		<path class="st5" d="M159.25,224.22c1.45,0.37,2.95,0.32,4.42,0.47c5.9,0.62,11.55,2.02,16.17,6.01
			c4.16,3.59,5.68,8.15,4.69,13.57c-0.55,3-1.89,5.66-3.3,8.31c-2.72,5.1-6.81,9.06-10.83,13.07c-8.17,8.15-16.34,16.29-24.5,24.45
			c-4.27,4.27-8.57,8.51-12.76,12.86c-3.97,4.11-7.44,8.61-9.58,13.98c-1.44,3.62-1.94,7.38-0.8,11.14
			c0.77,2.55,2.28,4.75,4.45,6.45c4.84,3.81,10.46,5.39,16.47,5.95c0.14,0.01,0.28,0.06,0.52,0.12c-0.62,0.25-1.17,0.15-1.7,0.15
			c-8.72,0.01-17.44,0.03-26.16,0.01c-4.68-0.01-9.34-0.49-13.76-2.03c-4.13-1.44-7.97-3.46-10.5-7.32
			c-2.65-4.05-2.77-8.32-1.43-12.81c1.47-4.94,4.29-9.07,7.65-12.88c5.2-5.89,10.93-11.26,16.47-16.82
			c9.29-9.33,18.67-18.58,27.89-27.97c3.66-3.72,6.7-7.99,8.55-12.9c1.87-4.99,2.03-10.04-1.17-14.67c-1.62-2.35-3.83-4.09-6.4-5.34
			c-4.49-2.18-9.26-3.23-14.34-3.51c0.97,1.13,1.69,2.22,0.96,3.7c-0.74,1.5-2.45,2.1-3.88,1.3c-1.49-0.83-1.9-2.64-0.98-4.07
			c0.29-0.45,0.87-0.66,0.99-1.23C137.33,224.22,148.29,224.22,159.25,224.22z"/>
		<path class="st6" d="M119.42,224.22c1.85,1.07,2.38,2.54,1.39,3.94c-0.6,0.85-1.44,1.27-2.49,1.13c-1.05-0.14-1.81-0.77-2.11-1.73
			c-0.3-0.94-0.18-1.91,0.71-2.61c0.3-0.23,0.58-0.48,0.88-0.73C118.34,224.22,118.88,224.22,119.42,224.22z"/>
		<path class="st7" d="M110.63,224.22c0.16,0.15,0.33,0.29,0.49,0.44c0.78,0.71,0.86,1.71,0.19,2.41c-0.69,0.71-1.64,0.7-2.31-0.01
			c-0.68-0.73-0.58-1.68,0.22-2.39c0.16-0.14,0.44-0.17,0.48-0.44C110.01,224.22,110.32,224.22,110.63,224.22z"/>
		<path class="st8" d="M52.29,336.55c0.41-0.26,0.83-0.61,1.3-0.14c0.34,0.35,0.47,0.77,0.1,1.21c-0.54,0.64-0.97,0.29-1.4-0.14
			C52.29,337.16,52.29,336.85,52.29,336.55z"/>
		<path class="st9" d="M95.35,224.22c0.12,0.15,0.25,0.29,0.34,0.46c0.24,0.43,0.14,0.8-0.22,1.12c-0.31,0.27-0.61,0.3-0.91,0.01
			c-0.33-0.32-0.52-0.67-0.23-1.11c0.1-0.16,0.22-0.31,0.32-0.47C94.88,224.22,95.12,224.22,95.35,224.22z"/>
		<path class="st10" d="M350.83,285.77c-1.72-1.62-3.42-3.1-5.26-4.41c-3.25-2.33-6.81-3.81-10.87-3.98
			c-4.53-0.19-8.88,0.35-12.86,2.75c-4.95,2.98-8.8,6.87-10.2,12.65c-1.78,7.34-1.06,14.39,3.37,20.68c3.39,4.81,8.27,7.4,14.1,8.32
			c7.95,1.25,14.49-1.47,20.15-6.84c0.44-0.42,0.79-0.93,1.18-1.4c0.56,0.45,0.38,0.86,0.38,1.21c0.01,7.63-0.01,15.25,0.04,22.88
			c0.01,0.96-0.32,1.28-1.2,1.53c-4.61,1.35-9.21,2.77-14,3.31c-7.95,0.89-15.55-0.47-22.75-3.91c-5.74-2.74-10.61-6.6-14.64-11.54
			c-5.85-7.17-9.09-15.3-9.51-24.58c-0.3-6.77,0.5-13.35,3.06-19.64c3.04-7.49,8.1-13.37,14.64-18.13
			c6.46-4.7,13.66-7.19,21.52-8.05c7.03-0.77,13.68,0.83,20.22,3.13c2.65,0.93,2.63,0.98,2.63,3.76c0,6.89,0,13.79,0,20.68
			C350.83,284.7,350.83,285.23,350.83,285.77z"/>
		<path class="st10" d="M392.04,308.55c0,10.36-0.01,20.72,0.02,31.07c0,0.74-0.15,0.98-0.94,0.98c-6.48-0.03-12.96-0.03-19.44,0.02
			c-0.97,0.01-0.93-0.49-0.93-1.15c0.04-8.31,0.15-16.63,0.08-24.94c-0.05-5.08-0.14-10.16-0.05-15.23c0.13-7.28,0-14.55,0.1-21.83
			c0.01-0.91-0.24-1.14-1.14-1.14c-4.98,0.04-9.95,0.01-14.93,0.03c-0.81,0-1.12-0.15-1.11-1.08c0.05-5.39,0.04-10.78,0.01-16.17
			c0-0.75,0.19-0.95,0.95-0.95c17.94,0.02,35.87,0.02,53.81,0c0.85,0,1.09,0.2,1.09,1.07c-0.04,5.35-0.04,10.7,0,16.06
			c0.01,0.89-0.26,1.08-1.11,1.08c-5.09-0.04-10.18,0.01-15.27-0.06c-0.97-0.01-1.15,0.3-1.15,1.16c0.02,9.05,0.01,18.1,0.01,27.15
			c0,1.31,0,2.62,0,3.93C392.03,308.55,392.03,308.55,392.04,308.55z"/>
		<path class="st10" d="M434.01,281.59c0.28,0.45,0.17,0.88,0.17,1.29c0.01,18.79-0.01,37.57,0.03,56.36c0,1.11-0.28,1.41-1.4,1.39
			c-5.63-0.06-11.26-0.05-16.89-0.01c-0.96,0.01-1.21-0.25-1.21-1.21c0.03-14.13,0.02-28.26,0.01-42.38c0-0.53,0.09-0.93,0.56-1.28
			c6.1-4.62,12.18-9.25,18.26-13.88C433.69,281.76,433.85,281.68,434.01,281.59z"/>
		<path class="st5" d="M414.9,290.07c-0.33-1.19-0.15-2.27-0.15-3.34c0-8.4,0-16.79,0-25.19c0-0.99-0.48-2.26,0.18-2.91
			c0.64-0.63,1.91-0.2,2.9-0.2c5.02-0.02,10.03,0.01,15.05-0.03c0.92-0.01,1.28,0.18,1.27,1.19c-0.03,4.66,0.01,9.32,0.07,13.98
			c0.02,1.24-0.31,2.08-1.4,2.89c-5.8,4.33-11.5,8.77-17.25,13.17C415.4,289.77,415.2,289.88,414.9,290.07z"/>
		<path class="st11" d="M125.9,264.9c1.74-0.02,3.07,1.33,3.12,3.18c0.05,1.58-1.46,3.06-3.12,3.07c-1.61,0.01-3.12-1.45-3.16-3.08
			C122.69,266.42,124.19,264.91,125.9,264.9z"/>
		<path class="st12" d="M98.74,291.7c1.71,0.02,3.14,1.51,3.09,3.22c-0.05,1.66-1.49,3.04-3.17,3.03c-1.69-0.01-3.07-1.41-3.08-3.11
			C95.57,293.11,97.01,291.69,98.74,291.7z"/>
		<path class="st6" d="M140.72,231.13c0.02,1.69-1.43,3.18-3.11,3.2c-1.59,0.02-3.09-1.45-3.14-3.07c-0.05-1.67,1.39-3.2,3.07-3.26
			C139.18,227.93,140.7,229.43,140.72,231.13z"/>
		<path class="st13" d="M115.47,281.4c0.01,1.77-1.36,3.14-3.14,3.14c-1.65-0.01-3.09-1.44-3.09-3.09
			c-0.01-1.69,1.46-3.16,3.16-3.15C114.08,278.3,115.46,279.69,115.47,281.4z"/>
		<path class="st14" d="M139.48,257.71c-1.74,0.01-3.11-1.3-3.15-3.01c-0.04-1.71,1.38-3.18,3.1-3.21c1.68-0.03,3.15,1.44,3.15,3.16
			C142.58,256.32,141.19,257.7,139.48,257.71z"/>
		<path class="st15" d="M85.18,305.21c1.65,0.01,3.18,1.6,3.13,3.23c-0.05,1.61-1.58,3.08-3.19,3.06c-1.62-0.02-3.11-1.52-3.13-3.13
			C81.99,306.73,83.53,305.19,85.18,305.21z"/>
		<path class="st16" d="M81.66,327.37c-1.75-0.07-3.03-1.42-2.98-3.16c0.05-1.71,1.6-3.17,3.25-3.06c1.66,0.11,3.04,1.6,2.99,3.22
			C84.86,326.15,83.47,327.44,81.66,327.37z"/>
		<path class="st5" d="M144.22,238.8c1.7,0.01,3.13,1.42,3.11,3.07c-0.02,1.77-1.41,3.17-3.15,3.15c-1.76-0.01-3.09-1.39-3.06-3.2
			C141.15,240.1,142.49,238.79,144.22,238.8z"/>
		<path class="st17" d="M85.56,337.51c0.01-1.75,1.43-3.09,3.21-3.05c1.57,0.03,2.98,1.51,2.95,3.1c-0.04,1.82-1.38,3.18-3.11,3.16
			C86.82,340.69,85.55,339.35,85.56,337.51z"/>
		<path class="st12" d="M128.68,245.19c0.01-1.24,1.22-2.42,2.48-2.4c1.34,0.01,2.54,1.21,2.53,2.51c-0.01,1.25-1.21,2.38-2.51,2.37
			C129.75,247.66,128.68,246.59,128.68,245.19z"/>
		<path class="st18" d="M127.07,236c0.02,1.26-1.15,2.46-2.39,2.48c-1.16,0.01-2.36-1.2-2.37-2.39c-0.01-1.19,1.15-2.37,2.34-2.39
			C125.84,233.67,127.06,234.82,127.07,236z"/>
		<path class="st19" d="M128.46,255.88c0,1.28-1.07,2.34-2.36,2.33c-1.21-0.01-2.26-1.07-2.27-2.3c-0.01-1.26,1-2.3,2.24-2.31
			C127.42,253.59,128.45,254.58,128.46,255.88z"/>
		<path class="st16" d="M73.64,311.84c-0.01,1.37-0.99,2.32-2.34,2.28c-1.23-0.03-2.27-1.1-2.25-2.32c0.02-1.22,1.09-2.29,2.29-2.3
			C72.68,309.49,73.65,310.48,73.64,311.84z"/>
		<path class="st20" d="M73.35,330.53c1.27,0.02,2.3,1.01,2.32,2.24c0.02,1.24-1.12,2.34-2.38,2.3c-1.24-0.04-2.29-1.11-2.26-2.32
			C71.06,331.52,72.11,330.52,73.35,330.53z"/>
		<path class="st21" d="M82.87,294.78c-1.31,0.02-2.29-0.9-2.33-2.19c-0.04-1.26,1.04-2.4,2.29-2.4c1.2,0,2.28,1.04,2.33,2.24
			C85.21,293.76,84.24,294.76,82.87,294.78z"/>
		<path class="st22" d="M64.79,323.48c-0.02,1.25-1.08,2.26-2.3,2.21c-1.26-0.05-2.18-1.06-2.16-2.35c0.02-1.35,1.03-2.33,2.35-2.27
			C63.89,321.12,64.81,322.16,64.79,323.48z"/>
		<path class="st23" d="M97.94,278.07c1.2,0,2.28,1.07,2.29,2.28c0.01,1.29-1.06,2.37-2.33,2.34c-1.27-0.03-2.16-0.99-2.15-2.32
			C95.76,279.04,96.68,278.07,97.94,278.07z"/>
		<path class="st24" d="M112.99,270.52c-1.3-0.01-2.34-1.02-2.3-2.24c0.04-1.16,1.21-2.26,2.37-2.23c1.24,0.04,2.23,1.1,2.19,2.35
			C115.22,269.59,114.23,270.52,112.99,270.52z"/>
		<path class="st25" d="M62.23,340.7c-1.17,0.02-2.27-0.98-2.31-2.12c-0.05-1.27,1.03-2.41,2.29-2.41c1.2,0,2.28,1.11,2.26,2.32
			C64.45,339.66,63.41,340.68,62.23,340.7z"/>
		<path class="st26" d="M115.56,237.7c-1,0.01-1.68-0.65-1.69-1.64c0-0.92,0.77-1.69,1.69-1.67c0.91,0.02,1.59,0.69,1.61,1.61
			C117.2,237.03,116.57,237.69,115.56,237.7z"/>
		<path class="st27" d="M116.89,259.11c-0.14,0.87-0.61,1.35-1.45,1.38c-0.75,0.03-1.52-0.76-1.48-1.45
			c0.05-0.74,0.84-1.53,1.52-1.44C116.35,257.72,116.77,258.3,116.89,259.11z"/>
		<path class="st28" d="M118.96,248.34c-0.47,0.02-0.97-0.49-1.02-1.3c-0.05-0.84,0.53-1.34,1.33-1.46c0.71-0.1,1.59,0.71,1.53,1.41
			C120.74,247.82,120.27,248.3,118.96,248.34z"/>
		<path class="st29" d="M105.84,232.02c-0.02,0.86-0.47,1.34-1.2,1.34c-0.75,0-1.17-0.55-1.18-1.29c-0.01-0.77,0.49-1.25,1.2-1.26
			C105.42,230.79,105.77,231.36,105.84,232.02z"/>
		<path class="st30" d="M102.27,226.94c-0.82-0.13-1.33-0.51-1.34-1.27c-0.01-0.7,0.44-1.16,1.13-1.21
			c0.72-0.05,1.15,0.38,1.22,1.08C103.37,226.35,102.81,226.67,102.27,226.94z"/>
		<path class="st31" d="M60.49,312.43c0.63,0.04,1.05,0.43,1.05,1.15c0,0.64-0.36,1.11-1.03,1.16c-0.79,0.06-1.13-0.53-1.13-1.16
			C59.38,313.02,59.62,312.43,60.49,312.43z"/>
		<path class="st32" d="M88.82,284.44c0.04-0.36,0.31-0.74,0.84-0.71c0.51,0.03,0.83,0.41,0.8,0.93c-0.02,0.47-0.35,0.8-0.82,0.79
			C89.15,285.44,88.78,285.18,88.82,284.44z"/>
		<path class="st33" d="M105.55,274.05c-0.38-0.05-0.66-0.25-0.69-0.64c-0.04-0.45,0.23-0.75,0.65-0.78
			c0.38-0.03,0.64,0.24,0.69,0.63C106.25,273.71,105.97,273.95,105.55,274.05z"/>
		<path class="st34" d="M111.39,242.91c-0.37-0.09-0.63-0.27-0.6-0.69c0.03-0.4,0.26-0.65,0.65-0.63c0.44,0.02,0.72,0.3,0.68,0.74
			C112.09,242.71,111.77,242.87,111.39,242.91z"/>
		<path class="st35" d="M72.26,299.02c-0.44-0.04-0.68-0.27-0.73-0.65c-0.05-0.41,0.19-0.67,0.58-0.7c0.44-0.04,0.76,0.18,0.75,0.65
			C72.87,298.72,72.57,298.91,72.26,299.02z"/>
		<path class="st36" d="M54.84,326.84c-0.08,0.43-0.26,0.7-0.67,0.71c-0.46,0.01-0.73-0.25-0.71-0.69c0.01-0.39,0.31-0.61,0.69-0.6
			C54.55,326.26,54.74,326.53,54.84,326.84z"/>
		<path class="st10" d="M511.44,290.87c-1.39-7.03-4.83-13.06-9.51-18.43c-5.46-6.26-11.96-10.92-20.14-12.97
			c-3.03-0.76-6.1-1.23-9.25-1.09c-7.29,0.01-14.57,0.03-21.86,0.04c-2.74,0-5.48,0.05-8.21-0.03c-1.06-0.03-1.27,0.33-1.27,1.31
			c0.03,17.39,0.02,34.79,0.02,52.18c0,9.54,0,19.09,0,28.63c0,0,0,0,0,0h0c0.15,0.03,0.3,0.07,0.45,0.07
			c11.03-0.07,22.06,0.2,33.09-0.14c4.47-0.14,8.78-1.15,12.84-3.03c8.52-3.94,14.99-10.18,19.58-18.27
			C512.22,310.32,513.4,300.78,511.44,290.87z M488.65,308.65c-2.66,7.17-7.94,11.49-15.41,13.12c-3.37,0.73-6.8,0.67-10.22,0.7
			c-0.93,0.01-0.85-0.49-0.85-1.09c0-7.35,0-14.7,0-22.05c0-7.2,0.03-14.39-0.03-21.59c-0.01-1.11,0.34-1.31,1.35-1.29
			c5.2,0.09,10.29,0.74,15.08,2.86c5.62,2.49,9.24,6.78,10.76,12.71C490.75,297.6,490.65,303.23,488.65,308.65z"/>
		<path class="st10" d="M294.67,339.42c-3.38-9.05-6.68-18.13-10.05-27.19c-6.58-17.68-13.19-35.36-19.74-53.05
			c-0.3-0.81-0.67-1.02-1.47-1.01c-6.91,0.03-13.81,0.04-20.72-0.01c-0.94-0.01-1.31,0.28-1.62,1.12
			c-3.08,8.39-6.37,16.69-9.45,25.08c-3.62,9.87-7.45,19.66-11.19,29.48c-3.2,8.42-6.41,16.84-9.62,25.26
			c-0.58,1.51-0.59,1.5,1.03,1.5c6.56-0.01,13.12-0.04,19.68,0.01c0.86,0.01,1.21-0.28,1.49-1.01c1.56-4.13,3.16-8.24,4.75-12.35
			c0.21-0.53,0.34-1.02,1.15-1.01c9.18,0.04,18.36,0.05,27.55,0.03c0.75,0,1.06,0.25,1.31,0.95c1.46,4.12,2.99,8.22,4.43,12.34
			c0.3,0.85,0.71,1.08,1.57,1.07c3.32-0.05,6.64-0.02,9.95-0.02c0,0,0,0,0,0c3.36,0,6.71-0.03,10.07,0.02
			C294.8,340.64,295.06,340.46,294.67,339.42z M260.65,309.97c-5.17-0.02-10.34-0.03-15.5,0.01c-0.85,0.01-1.05-0.14-0.74-1.01
			c2.84-8.14,5.63-16.3,8.44-24.45c0.02-0.06,0.1-0.11,0.3-0.33c1.38,4.17,2.72,8.23,4.06,12.3c1.38,4.19,2.72,8.38,4.14,12.55
			C261.63,309.9,261.4,309.98,260.65,309.97z"/>
		<path class="st10" d="M212.68,310.85c-1.22-5.81-4.69-9.88-10.07-12.38c-1.8-0.83-3.69-1.34-5.61-1.83
			c0.06-0.14,0.06-0.19,0.09-0.21c0.54-0.36,1.09-0.71,1.62-1.09c4.05-2.95,6.39-6.91,6.83-11.9c0.29-3.3,0.28-6.61-0.45-9.88
			c-1.02-4.58-2.96-8.64-6.98-11.38c-4.39-3-9.37-3.86-14.58-3.88c-0.51,0-0.77,0.27-1.06,0.57c-1.22,1.29-2.43,2.58-3.64,3.87
			c-3.65,3.89-7.3,7.77-11.14,11.86c0.77,0,1.26,0,1.75,0c3.23,0,6.48-0.14,9.67,0.48c4.51,0.87,6.9,2.28,7.29,6.9
			c0.32,3.88-1.54,7.25-5.96,8.13c-2.21,0.44-4.43,0.54-6.66,0.55c-6.79,0.05-13.58,0.06-20.37-0.02c-1.47-0.02-2.57,0.33-3.5,1.48
			c-0.79,0.98-1.72,1.86-2.61,2.77c-6.17,6.23-12.22,12.58-18.28,18.93c-0.49,0.51-0.73,1-0.72,1.71c0.03,2.7-0.03,5.39,0.02,8.09
			c0.03,1.57,0.18,3.14,0.65,4.66c1.68,5.4,5.89,8.17,10.79,10.08c4.72,1.84,9.72,2.33,14.74,2.33c10.6,0.01,21.21,0.15,31.81-0.09
			c5.74-0.13,11.2-1.19,16.25-4.05c3.94-2.24,6.97-5.31,8.79-9.46C213.65,321.83,213.84,316.36,212.68,310.85z M185.59,322.94
			c-1.6,0.45-3.24,0.57-4.85,0.9c-0.28,0.18-0.6,0.11-0.9,0.11c-9.33,0-18.67,0-28,0c-0.3,0-0.62,0.06-0.91-0.09
			c-0.23-0.6-0.1-1.22-0.11-1.83c-0.08-4.7,0.16-9.4-0.14-14.09c-0.06-0.86,0.2-1.1,1.07-1.09c3.7,0.05,7.41,0.11,11.11,0
			c5.9-0.17,11.8-0.08,17.7-0.1c2.32,0,4.59,0.37,6.79,1.13c2.9,1,4.29,3.23,4.65,6.04C192.61,318.65,190.37,321.6,185.59,322.94z"
			/>
		<g>
			<path class="st37" d="M504.86,244.18c-5.35,0.04-9.54,4.55-9.58,9.63c-0.04,5.3,4.83,9.89,9.6,9.61c4.83,0.3,9.77-3.96,9.76-9.65
				C514.63,248.32,509.88,244.15,504.86,244.18z M504.96,261.99c-4.73-0.01-8.06-3.29-8.16-8.06c-0.09-4.67,3.23-8.22,8.17-8.3
				c4.6-0.07,8.31,3.63,8.11,8.32C513.15,258.44,509.69,262,504.96,261.99z"/>
			<path class="st38" d="M508.26,253.77c1.13-0.52,1.54-1.59,1.48-2.77c-0.05-1.13-0.65-1.92-1.78-2.3c-2.12-0.71-4.32-0.5-6.5-0.57
				c-0.52-0.01-0.5,0.34-0.5,0.7c0,3.15,0.01,6.3-0.01,9.45c-0.01,1.25,0.91,0.57,1.41,0.7c0.52,0.14,0.98,0.09,0.94-0.7
				c-0.06-1.03-0.02-2.07-0.01-3.11c0-0.27-0.15-0.66,0.37-0.68c0.75-0.02,1.53-0.16,1.83,0.87c0.18,0.62,0.54,1.18,0.81,1.78
				c0.88,1.95,0.88,1.95,3.03,1.83c0.07,0,0.14-0.05,0.37-0.13c-0.62-1.25-1.17-2.48-1.83-3.64
				C507.44,254.51,507.42,254.15,508.26,253.77z M505.78,252.24c-0.06,0-0.11-0.01-0.16-0.02h-2.27v-2.44h2.44
				c0.68,0,1.23,0.55,1.23,1.23S506.46,252.24,505.78,252.24z"/>
		</g>
	</g>
</g>
</svg>
