<?xml version="1.0" encoding="utf-8"?>
<!-- Generator: Adobe Illustrator 28.3.0, SVG Export Plug-In . SVG Version: 6.00 Build 0)  -->
<svg version="1.1" id="Capa_1" xmlns="http://www.w3.org/2000/svg" xmlns:xlink="http://www.w3.org/1999/xlink" x="0px" y="0px"
	 viewBox="0 0 1339.39 385.8" style="enable-background:new 0 0 1339.39 385.8;" xml:space="preserve">
<style type="text/css">
	.st0{fill:#0071B2;}
	.st1{fill:#FFFFFF;}
	.st2{fill:#EF1615;}
	.st3{fill:url(#SVGID_1_);}
	.st4{fill:url(#SVGID_00000098913920467501002960000018437170970398602373_);}
	.st5{fill:#78B24E;}
	.st6{fill:#78B34E;}
	.st7{fill:#7CB253;}
	.st8{fill:#85AD62;}
	.st9{fill:#87AE64;}
	.st10{fill:#00578C;}
	.st11{fill:#77B34D;}
	.st12{fill:#78B34F;}
	.st13{fill:#79B24D;}
	.st14{fill:#7AB24D;}
	.st15{fill:#79B24E;}
	.st16{fill:#78B34D;}
	.st17{fill:#78B24F;}
	.st18{fill:#7BB24E;}
	.st19{fill:#7AB24E;}
	.st20{fill:#7BB150;}
	.st21{fill:#79B251;}
	.st22{fill:#7AB34C;}
	.st23{fill:#77B34E;}
	.st24{fill:#79B34D;}
	.st25{fill:#7AB34D;}
	.st26{fill:#7BB351;}
	.st27{fill:#7CB256;}
	.st28{fill:#7EB156;}
	.st29{fill:#80B158;}
	.st30{fill:#7DB357;}
	.st31{fill:#83B359;}
	.st32{fill:#81AD5A;}
	.st33{fill:#8BAE76;}
	.st34{fill:#8DAE70;}
	.st35{fill:#90AC6F;}
	.st36{fill:#89AA73;}
	.st37{fill:#05578C;}
	.st38{fill:#03578E;}
	.st39{opacity:0.42;}
	.st40{fill:#936757;}
	.st41{fill:#7C5B49;}
	.st42{fill:#6E4F41;}
	.st43{fill:#7F5E4D;}
	.st44{opacity:0.43;fill:#D6CBC4;}
	.st45{fill:#4F382E;}
	.st46{fill:#EBCDBA;}
	.st47{fill:#E8CDB9;}
	.st48{fill:url(#SVGID_00000020387634741757813150000000573386027357663167_);}
	.st49{opacity:0.55;}
	.st50{opacity:0.76;}
	.st51{opacity:0.66;fill:url(#SVGID_00000163764095657299570670000014924449921146504110_);}
	.st52{opacity:0.61;fill:url(#SVGID_00000161607363669007550300000006473948512060174226_);}
	.st53{opacity:0.66;fill:url(#SVGID_00000006706973596412107100000012136666823559169696_);}
	.st54{opacity:0.61;fill:url(#SVGID_00000090997639882169359140000017814101879164510600_);}
	.st55{opacity:0.66;fill:url(#SVGID_00000093140621037408016080000009945718517313051269_);}
	.st56{opacity:0.61;fill:url(#SVGID_00000042738949907516734200000008307631879159132607_);}
	.st57{opacity:0.66;fill:url(#SVGID_00000170976273079783056740000012071503849771562160_);}
	.st58{opacity:0.61;fill:url(#SVGID_00000022554815993381101530000000280900844481138341_);}
	.st59{opacity:0.66;fill:url(#SVGID_00000142147502599766884140000016985396208606035606_);}
	.st60{opacity:0.61;fill:url(#SVGID_00000078728600979438335460000002395581838167826560_);}
	.st61{opacity:0.66;fill:url(#SVGID_00000059294581618626352090000002630322359607557547_);}
	.st62{opacity:0.61;fill:url(#SVGID_00000024695501625493384030000015839180694748684735_);}
	.st63{opacity:0.66;fill:url(#SVGID_00000157990510231640418110000006038527439418368140_);}
	.st64{opacity:0.61;fill:url(#SVGID_00000023976121358596634150000004535575886093237672_);}
	.st65{opacity:0.66;fill:url(#SVGID_00000172415137900846482440000017174318336802979494_);}
	.st66{opacity:0.61;fill:url(#SVGID_00000183929960997861249140000005296273552616986548_);}
	.st67{opacity:0.66;fill:url(#SVGID_00000042707608297988984170000015957636325904727952_);}
	.st68{opacity:0.61;fill:url(#SVGID_00000177470191202668164520000004366144561881036729_);}
	.st69{opacity:0.66;fill:url(#SVGID_00000161609509539426070430000003999282452637446791_);}
	.st70{opacity:0.61;fill:url(#SVGID_00000129200251952527701880000000347398981650590083_);}
	.st71{opacity:0.66;fill:url(#SVGID_00000159465848352905010360000000222816897411335810_);}
	.st72{opacity:0.61;fill:url(#SVGID_00000043435067125497284520000017897758011175918247_);}
	.st73{opacity:0.66;fill:url(#SVGID_00000056410965595245464590000000979089930873805222_);}
	.st74{opacity:0.61;fill:url(#SVGID_00000114040897254790079750000009042848076658156433_);}
	.st75{opacity:0.66;fill:url(#SVGID_00000114070175926661644990000006327474446506919067_);}
	.st76{opacity:0.61;fill:url(#SVGID_00000006684058854825246240000013293523080010850736_);}
	.st77{opacity:0.66;fill:url(#SVGID_00000106138467817554686630000014451974210658271912_);}
	.st78{opacity:0.61;fill:url(#SVGID_00000039842155153364419160000007977086656159071392_);}
	.st79{opacity:0.66;fill:url(#SVGID_00000124133239320925050220000013023731559901875378_);}
	.st80{opacity:0.61;fill:url(#SVGID_00000160902868158621279400000002163437894176389791_);}
	.st81{opacity:0.66;fill:url(#SVGID_00000108999911578654216050000012222436555172125369_);}
	.st82{opacity:0.61;fill:url(#SVGID_00000109020218994724285260000017527543490654531714_);}
	.st83{opacity:0.66;fill:url(#SVGID_00000117648061841085259640000006012456470689581446_);}
	.st84{opacity:0.61;fill:url(#SVGID_00000070801003719301797870000017644600575306817214_);}
	.st85{opacity:0.66;fill:url(#SVGID_00000145778182451226760080000012978289356469179778_);}
	.st86{opacity:0.61;fill:url(#SVGID_00000044891262464800519490000002811044587595881868_);}
	.st87{fill:#A6CA56;}
	.st88{fill:#0076B3;}
	.st89{fill:none;stroke:#0076B3;stroke-width:0.0208;stroke-miterlimit:10;}
	.st90{opacity:0.12;}
	.st91{fill-rule:evenodd;clip-rule:evenodd;fill:#0076B3;stroke:#0076B3;stroke-width:0.104;stroke-miterlimit:3.8637;}
	.st92{fill-rule:evenodd;clip-rule:evenodd;fill:#C4DA8F;}
	.st93{fill-rule:evenodd;clip-rule:evenodd;fill:#FFFFFF;}
	.st94{fill:#573734;}
	.st95{fill:#8A6552;}
	.st96{opacity:0.33;fill:#6E4F41;}
	.st97{fill:#010101;}
	.st98{fill:#5C4436;}
	.st99{fill:#735345;}
	.st100{opacity:0.21;fill:#B5806B;}
	.st101{fill:#64483B;}
	.st102{fill:#D9C0AE;}
	.st103{fill:#1D1D1C;}
	.st104{fill:#EFE0CE;}
	.st105{opacity:0.6;fill:#7C3B11;}
	.st106{fill:#70554F;}
	.st107{fill:#F08588;}
	.st108{fill:#2E2E2D;}
	.st109{fill:#593A30;}
	.st110{clip-path:url(#SVGID_00000132085912377406589170000013607215744391118252_);fill:#FFFFFF;}
	.st111{clip-path:url(#SVGID_00000132085912377406589170000013607215744391118252_);}
</style>
<g>
	<path class="st2" d="M363.86,355.68c-2.45-1.25-5.31-1.88-8.52-1.88h-13.36v30.25h13.36c3.21,0,6.08-0.63,8.52-1.88
		c2.47-1.27,4.42-3.05,5.81-5.32c1.38-2.26,2.08-4.93,2.08-7.93c0-3.03-0.7-5.7-2.09-7.95
		C368.28,358.72,366.33,356.94,363.86,355.68z M349.34,360.36h5.75c1.93,0,3.61,0.36,4.98,1.08c1.37,0.71,2.4,1.68,3.14,2.95
		c0.74,1.26,1.12,2.78,1.12,4.53c0,1.73-0.38,3.25-1.12,4.52c-0.75,1.28-1.77,2.25-3.14,2.96c-1.38,0.72-3.06,1.08-4.98,1.08h-5.75
		V360.36z"/>
	<polygon class="st2" points="414.63,371.92 428.21,371.92 428.21,365.48 414.63,365.48 414.63,360.32 429.93,360.32 429.93,353.79 
		407.27,353.79 407.27,384.05 430.49,384.05 430.49,377.53 414.63,377.53 	"/>
	<path class="st2" d="M484.71,368.15c-1.05-0.6-2.22-1.1-3.49-1.47c-1.22-0.36-2.45-0.68-3.65-0.96c-1.18-0.28-2.26-0.56-3.21-0.84
		c-0.83-0.25-1.49-0.59-1.98-1.01c-0.36-0.32-0.53-0.71-0.53-1.26c0-0.49,0.13-0.91,0.41-1.29c0.29-0.39,0.79-0.73,1.49-1
		c1.44-0.56,4.03-0.67,6.7,0.06c1.24,0.33,2.46,0.86,3.63,1.55l1.07,0.64l2.45-6.03l-0.74-0.48c-1.33-0.86-2.89-1.53-4.65-1.99
		c-1.74-0.45-3.52-0.68-5.29-0.68c-2.71,0-5,0.42-6.81,1.24c-1.86,0.84-3.27,2.01-4.19,3.45c-0.93,1.44-1.4,3.05-1.4,4.77
		c0,1.7,0.37,3.14,1.09,4.27c0.7,1.1,1.63,2,2.75,2.66c1.05,0.62,2.22,1.12,3.49,1.51c1.22,0.37,2.45,0.69,3.65,0.96
		c1.15,0.26,2.21,0.54,3.17,0.84c0.83,0.26,1.51,0.61,2.02,1.04c0.38,0.32,0.54,0.7,0.54,1.25c0,0.45-0.14,0.85-0.41,1.21
		c-0.3,0.38-0.81,0.7-1.52,0.95c-0.79,0.28-1.87,0.42-3.22,0.42c-1.61,0-3.2-0.28-4.74-0.82c-1.54-0.55-2.84-1.23-3.87-2.04
		l-1.08-0.85l-2.7,6.05l0.62,0.52c1.28,1.08,3.01,1.96,5.15,2.63c2.1,0.66,4.33,0.99,6.62,0.99c2.71,0,5.01-0.42,6.83-1.24
		c1.87-0.85,3.29-2.01,4.22-3.45c0.93-1.44,1.4-3.03,1.4-4.74c0-1.67-0.36-3.09-1.07-4.22C486.76,369.69,485.83,368.8,484.71,368.15
		z"/>
	<path class="st2" d="M545.55,355.68c-2.45-1.25-5.31-1.88-8.52-1.88h-13.36v30.25h13.36c3.21,0,6.08-0.63,8.52-1.88
		c2.47-1.27,4.42-3.05,5.81-5.32c1.38-2.26,2.09-4.93,2.09-7.93c0-3.03-0.7-5.7-2.09-7.95
		C549.97,358.72,548.02,356.94,545.55,355.68z M546.04,368.92c0,1.73-0.38,3.25-1.12,4.52c-0.75,1.28-1.77,2.25-3.14,2.96
		c-1.38,0.72-3.06,1.08-4.98,1.08h-5.75v-17.13h5.75c1.93,0,3.61,0.36,4.98,1.08c1.37,0.71,2.4,1.68,3.14,2.95
		C545.66,365.64,546.04,367.17,546.04,368.92z"/>
	<polygon class="st2" points="596.33,371.92 609.9,371.92 609.9,365.48 596.33,365.48 596.33,360.32 611.63,360.32 611.63,353.79 
		588.96,353.79 588.96,384.05 612.19,384.05 612.19,377.53 596.33,377.53 	"/>
	<polygon class="st2" points="774.15,360.32 780.09,360.32 780.09,384.05 787.46,384.05 787.46,353.79 774.15,353.79 	"/>
	<path class="st2" d="M840.68,355.17c-1.97-1.18-4.36-1.78-7.12-1.78c-2.05,0-3.96,0.41-5.66,1.23c-1.73,0.83-3.13,2.02-4.14,3.52
		c-1.03,1.53-1.55,3.36-1.55,5.44c0,1.95,0.49,3.68,1.46,5.15c0.96,1.46,2.27,2.59,3.9,3.38c1.6,0.78,3.41,1.17,5.39,1.17
		c1.5,0,2.9-0.21,4.15-0.61c0.75-0.25,1.46-0.56,2.11-0.95c-0.29,1.73-0.9,3.1-1.85,4.09c-1.35,1.42-3.16,2.12-5.53,2.12
		c-0.88,0-1.75-0.09-2.58-0.28c-0.78-0.17-1.51-0.48-2.17-0.91l-1.02-0.67l-2.88,5.88l0.79,0.52c1.04,0.68,2.28,1.19,3.68,1.51
		c1.36,0.31,2.81,0.47,4.29,0.47c2.9,0,5.5-0.63,7.71-1.86c2.24-1.25,4.01-3.1,5.27-5.5c1.24-2.37,1.87-5.28,1.87-8.65
		c0-3.17-0.52-5.89-1.55-8.08C844.21,358.11,842.67,356.36,840.68,355.17z M838.59,363.48c-0.03,0.63-0.21,1.19-0.54,1.7
		c-0.38,0.58-0.89,1.02-1.58,1.35c-0.71,0.34-1.55,0.51-2.5,0.51c-1.45,0-2.59-0.35-3.4-1.03c-0.77-0.65-1.14-1.52-1.14-2.67
		c0-0.78,0.17-1.42,0.53-1.96c0.36-0.54,0.85-0.96,1.51-1.26c0.68-0.32,1.49-0.48,2.4-0.48c1.08,0,1.99,0.18,2.69,0.53
		c0.69,0.34,1.19,0.78,1.54,1.33c0.06,0.09,0.11,0.19,0.16,0.29l-0.06-0.07L838.59,363.48z"/>
	<polygon class="st2" points="879.47,365.14 886.48,365.14 886.48,360.36 894.8,360.36 884.23,384.05 892.17,384.05 903.46,358.59 
		903.46,353.79 879.47,353.79 	"/>
	<path class="st2" d="M955.25,355.25c-1.93-1.23-4.15-1.85-6.6-1.85c-2.42,0-4.63,0.62-6.57,1.85c-1.95,1.23-3.49,3.03-4.59,5.37
		c-1.08,2.29-1.63,5.08-1.63,8.31c0,3.23,0.55,6.02,1.63,8.31c1.1,2.33,2.65,4.14,4.59,5.37c1.95,1.23,4.16,1.85,6.58,1.85
		c2.45,0,4.67-0.62,6.6-1.85c1.93-1.23,3.47-3.03,4.59-5.36c1.1-2.29,1.65-5.09,1.65-8.31c0-3.22-0.56-6.02-1.65-8.31
		C958.72,358.28,957.18,356.48,955.25,355.25z M954.08,368.92c0,2.11-0.25,3.86-0.76,5.21c-0.47,1.27-1.11,2.2-1.9,2.78
		c-0.78,0.58-1.69,0.86-2.78,0.86c-1.03,0-1.92-0.28-2.72-0.86c-0.8-0.58-1.44-1.51-1.91-2.78c-0.5-1.34-0.76-3.1-0.76-5.21
		c0-2.13,0.25-3.89,0.76-5.22c0.47-1.25,1.11-2.18,1.91-2.76c0.8-0.58,1.69-0.86,2.72-0.86c1.09,0,1.99,0.28,2.78,0.85
		c0.79,0.58,1.43,1.51,1.9,2.77C953.82,365.03,954.08,366.79,954.08,368.92z"/>
	<path class="st2" d="M297.61,364.2H2.95c-1.63,0-2.95,1.32-2.95,2.95s1.32,2.95,2.95,2.95h294.66c1.63,0,2.95-1.32,2.95-2.95
		S299.24,364.2,297.61,364.2z"/>
	<path class="st2" d="M1332.16,364.2h-330.09c-1.63,0-2.95,1.32-2.95,2.95c0,1.63,1.32,2.95,2.95,2.95h330.09
		c1.63,0,2.95-1.32,2.95-2.95C1335.11,365.52,1333.79,364.2,1332.16,364.2z"/>
	<polygon class="st2" points="485.18,61.49 447.97,61.49 447.97,1.27 430.79,1.27 430.79,75.49 485.18,75.49 	"/>
	<path class="st2" d="M514.48,59.58h34.4l6.59,15.9h18.02L540.31,1.27h-16.96l-33.08,74.22h17.6L514.48,59.58z M531.72,18.14
		l11.77,28.4h-23.58L531.72,18.14z"/>
	<path class="st2" d="M646.55,70.13c5.02-3.57,7.53-8.54,7.53-14.9c0-4.31-1.01-7.95-3.02-10.92c-2.01-2.97-4.82-5.21-8.43-6.73
		c-0.65-0.28-1.33-0.52-2.02-0.74c2.87-1.52,5.18-3.56,6.9-6.15c1.91-2.86,2.86-6.24,2.86-10.13c0-5.79-2.35-10.46-7.05-14
		c-4.7-3.53-11.72-5.3-21.05-5.3h-36.26v74.22h38.38C634.14,75.49,641.53,73.7,646.55,70.13z M620.15,14.21
		c4.17,0,7.37,0.73,9.6,2.17c2.23,1.45,3.34,3.62,3.34,6.52c0,2.97-1.11,5.18-3.34,6.63c-2.23,1.45-5.43,2.17-9.6,2.17h-17.07V14.21
		H620.15z M603.08,62.55V44.21h20.04c4.45,0,7.83,0.76,10.13,2.28c2.3,1.52,3.45,3.84,3.45,6.94c0,3.18-1.15,5.5-3.45,6.94
		c-2.3,1.45-5.67,2.17-10.13,2.17H603.08z"/>
	<path class="st2" d="M678.73,65.84c3.64,3.46,7.95,6.15,12.93,8.06c4.98,1.91,10.41,2.86,16.27,2.86c5.79,0,11.15-0.95,16.06-2.86
		c4.91-1.91,9.19-4.58,12.83-8c3.64-3.43,6.48-7.49,8.54-12.19c2.05-4.7,3.07-9.81,3.07-15.32c0-5.58-1.03-10.69-3.07-15.32
		c-2.05-4.63-4.9-8.68-8.54-12.14c-3.64-3.46-7.92-6.15-12.83-8.06C719.08,0.95,713.69,0,707.83,0c-5.8,0-11.17,0.95-16.12,2.86
		c-4.95,1.91-9.26,4.6-12.93,8.06c-3.68,3.46-6.52,7.53-8.54,12.19c-2.01,4.66-3.02,9.75-3.02,15.27s1.01,10.6,3.02,15.27
		C672.26,58.31,675.08,62.38,678.73,65.84z M686.36,28.73c1.17-2.9,2.81-5.41,4.93-7.53c2.12-2.12,4.58-3.75,7.37-4.88
		c2.79-1.13,5.85-1.7,9.17-1.7c3.32,0,6.4,0.57,9.22,1.7c2.83,1.13,5.28,2.76,7.37,4.88c2.08,2.12,3.71,4.63,4.88,7.53
		c1.17,2.9,1.75,6.11,1.75,9.65c0,3.54-0.58,6.75-1.75,9.65c-1.17,2.9-2.81,5.41-4.93,7.53c-2.12,2.12-4.58,3.75-7.37,4.88
		c-2.79,1.13-5.85,1.7-9.17,1.7c-3.32,0-6.4-0.57-9.22-1.7c-2.83-1.13-5.28-2.76-7.37-4.88c-2.09-2.12-3.71-4.65-4.88-7.58
		c-1.17-2.93-1.75-6.13-1.75-9.59C684.61,34.85,685.19,31.63,686.36,28.73z"/>
	<path class="st2" d="M783.31,54.81h14.95c0.27,0,0.53-0.01,0.8-0.02l14.26,20.69h18.55l-16.58-23.8c0.05-0.02,0.1-0.04,0.15-0.06
		c4.81-2.12,8.52-5.18,11.13-9.17c2.61-3.99,3.92-8.75,3.92-14.26c0-5.58-1.31-10.39-3.92-14.42c-2.62-4.03-6.33-7.12-11.13-9.28
		c-4.81-2.16-10.53-3.23-17.18-3.23h-32.12v74.22h17.17V54.81z M809.18,18.66c2.61,2.26,3.92,5.44,3.92,9.54
		c0,4.03-1.31,7.19-3.92,9.49c-2.62,2.3-6.57,3.45-11.87,3.45h-14V15.27h14C802.61,15.27,806.57,16.4,809.18,18.66z"/>
	<path class="st2" d="M863.29,59.58h34.4l6.59,15.9h18.02L889.12,1.27h-16.96l-33.08,74.22h17.6L863.29,59.58z M880.53,18.14
		l11.77,28.4h-23.58L880.53,18.14z"/>
	<polygon class="st2" points="946.48,75.49 963.66,75.49 963.66,15.27 987.41,15.27 987.41,1.27 922.74,1.27 922.74,15.27 
		946.48,15.27 	"/>
	<path class="st2" d="M1007.18,65.84c3.64,3.46,7.95,6.15,12.93,8.06c4.98,1.91,10.41,2.86,16.27,2.86c5.79,0,11.15-0.95,16.06-2.86
		c4.91-1.91,9.19-4.58,12.83-8c3.64-3.43,6.48-7.49,8.54-12.19c2.05-4.7,3.07-9.81,3.07-15.32c0-5.58-1.03-10.69-3.07-15.32
		c-2.05-4.63-4.9-8.68-8.54-12.14c-3.64-3.46-7.92-6.15-12.83-8.06c-4.91-1.91-10.3-2.86-16.17-2.86c-5.8,0-11.17,0.95-16.12,2.86
		c-4.95,1.91-9.26,4.6-12.93,8.06c-3.68,3.46-6.52,7.53-8.54,12.19c-2.01,4.66-3.02,9.75-3.02,15.27s1.01,10.6,3.02,15.27
		C1000.71,58.31,1003.54,62.38,1007.18,65.84z M1014.81,28.73c1.17-2.9,2.81-5.41,4.93-7.53c2.12-2.12,4.58-3.75,7.37-4.88
		c2.79-1.13,5.85-1.7,9.17-1.7c3.32,0,6.4,0.57,9.22,1.7c2.83,1.13,5.28,2.76,7.37,4.88c2.08,2.12,3.71,4.63,4.88,7.53
		c1.17,2.9,1.75,6.11,1.75,9.65c0,3.54-0.58,6.75-1.75,9.65c-1.17,2.9-2.81,5.41-4.93,7.53c-2.12,2.12-4.58,3.75-7.37,4.88
		c-2.79,1.13-5.85,1.7-9.17,1.7c-3.32,0-6.4-0.57-9.22-1.7c-2.83-1.13-5.28-2.76-7.37-4.88c-2.09-2.12-3.71-4.65-4.88-7.58
		c-1.17-2.93-1.75-6.13-1.75-9.59C1013.07,34.85,1013.65,31.63,1014.81,28.73z"/>
	<path class="st2" d="M1111.77,54.81h14.95c0.27,0,0.53-0.01,0.8-0.02l14.26,20.69h18.55l-16.58-23.8c0.05-0.02,0.1-0.04,0.15-0.06
		c4.81-2.12,8.52-5.18,11.13-9.17c2.61-3.99,3.92-8.75,3.92-14.26c0-5.58-1.31-10.39-3.92-14.42c-2.62-4.03-6.33-7.12-11.13-9.28
		c-4.81-2.16-10.53-3.23-17.18-3.23h-32.12v74.22h17.18V54.81z M1137.64,18.66c2.61,2.26,3.92,5.44,3.92,9.54
		c0,4.03-1.31,7.19-3.92,9.49c-2.62,2.3-6.57,3.45-11.87,3.45h-14V15.27h14C1131.07,15.27,1135.03,16.4,1137.64,18.66z"/>
	<rect x="1177.29" y="1.27" class="st2" width="17.18" height="74.22"/>
	<path class="st2" d="M1223.68,65.84c3.64,3.46,7.95,6.15,12.93,8.06c4.98,1.91,10.41,2.86,16.27,2.86c5.8,0,11.15-0.95,16.06-2.86
		c4.91-1.91,9.19-4.58,12.83-8c3.64-3.43,6.48-7.49,8.54-12.19c2.05-4.7,3.07-9.81,3.07-15.32c0-5.58-1.03-10.69-3.07-15.32
		c-2.05-4.63-4.9-8.68-8.54-12.14c-3.64-3.46-7.92-6.15-12.83-8.06c-4.91-1.91-10.3-2.86-16.17-2.86c-5.8,0-11.17,0.95-16.12,2.86
		c-4.95,1.91-9.26,4.6-12.93,8.06c-3.68,3.46-6.52,7.53-8.54,12.19c-2.01,4.66-3.02,9.75-3.02,15.27s1.01,10.6,3.02,15.27
		C1217.21,58.31,1220.04,62.38,1223.68,65.84z M1231.31,28.73c1.17-2.9,2.81-5.41,4.93-7.53c2.12-2.12,4.58-3.75,7.37-4.88
		c2.79-1.13,5.85-1.7,9.17-1.7c3.32,0,6.4,0.57,9.22,1.7c2.83,1.13,5.28,2.76,7.37,4.88c2.08,2.12,3.71,4.63,4.88,7.53
		c1.17,2.9,1.75,6.11,1.75,9.65c0,3.54-0.58,6.75-1.75,9.65c-1.17,2.9-2.81,5.41-4.93,7.53c-2.12,2.12-4.58,3.75-7.37,4.88
		c-2.79,1.13-5.85,1.7-9.17,1.7c-3.32,0-6.4-0.57-9.22-1.7c-2.83-1.13-5.28-2.76-7.37-4.88c-2.09-2.12-3.71-4.65-4.88-7.58
		c-1.17-2.93-1.75-6.13-1.75-9.59C1229.56,34.85,1230.15,31.63,1231.31,28.73z"/>
	<path class="st2" d="M38.58,319.1c56.93-0.56,113.87-0.19,170.81-0.32c4.23-0.01,7.2,1.24,9.67,4.6
		c3.62,4.93,7.37,9.78,11.32,14.45c3.46,4.09,7.79,7.51,13.27,7.71c10.46,0.39,20.94,0.11,32.35,0.11c-1.1-1.48-1.58-2.19-2.12-2.85
		c-4.43-5.41-9.06-10.68-12.57-16.77c-2.82-4.89-2.41-6.02,2.65-8.11c2.69-1.11,5.41-2.17,8.03-3.43
		c10.04-4.83,16.53-12.43,19.14-23.5c2.5-10.61-1.23-19.76-5.58-28.93c-11.43-24.1-25.15-46.99-37.17-70.79
		c-13.66-27.05-28.21-53.66-42.25-80.52c-1.02-1.95-2.23-2.35-4.13-2.33c-6.72,0.05-13.43,0.02-20.15,0.02
		c-28.32,0-56.65-0.02-84.97,0.01c-2.06,0-4.26-0.6-5.67,2.04c-7.79,14.5-15.91,28.82-23.56,43.39
		C56,176.05,44.79,198.44,33.11,220.58c-8.56,16.23-18.5,31.71-25.83,48.61c-5.02,11.56-4.81,22.67,2.28,33.26
		C16.44,312.74,24.82,319.24,38.58,319.1z M105.7,271.31c7.86-34.48,15.46-69.02,23.04-103.56c0.55-2.49,1.48-3.31,4.04-3.29
		c19.11,0.17,38.22,0.23,57.33,0.2c2.48,0,3.97,0.56,4.95,3.07c12.95,32.92,26,65.8,39,98.7c0.46,1.17,1.67,2.52,0.77,3.64
		c-1.25,1.55-2.68,2.95-4.89,0.5c-4.29-4.75-9-9.13-13.4-13.78c-1.07-1.13-2-1.9-3.65-1.89c-11.96,0.05-23.92,0.03-37.16,0.03
		c4.17,4.96,7.63,9.02,11.03,13.13c1.37,1.66,3.63,3.65,2.83,5.5c-0.73,1.71-3.66,0.67-5.61,0.72c-24.78,0.59-49.57,1.05-74.35,1.72
		C105.83,276.1,104.73,275.58,105.7,271.31z"/>
	<path class="st2" d="M1142.78,188.1c-1.07-1.99,0.95-5.34-3.56-5.22c-11.96,0.31-23.94,0.14-35.9,0.06
		c-2.32-0.02-3.31,0.47-3.31,3.1c0.08,42.47,0.1,84.94,0.01,127.4c-0.01,3.28,1.33,3.78,4.15,3.74c11.24-0.13,22.48-0.22,33.72,0.03
		c3.68,0.08,4.57-0.99,4.53-4.58c-0.22-20.72-0.2-41.44-0.23-62.17c-0.02-8.03-0.1-16.06,0.07-24.08c0.14-6.44,3.75-10.5,9.48-11.18
		c7.21-0.85,12.58,4.48,12.61,12.75c0.12,28.31,0.22,56.62,0.15,84.93c-0.01,3.49,1.01,4.4,4.42,4.35
		c12.26-0.2,24.53-0.28,36.78,0.01c4.25,0.1,5.34-1.09,5.31-5.31c-0.2-26.56-0.12-53.12-0.08-79.68c0-2.46,0.17-4.98,0.69-7.38
		c1.17-5.43,5.37-8.92,10.4-8.98c5.94-0.07,10.01,2.98,11.3,8.87c0.55,2.53,0.65,5.2,0.66,7.81c0.05,26.71,0.13,53.41-0.07,80.12
		c-0.03,4.04,1.24,4.8,4.94,4.7c11.09-0.29,22.18-0.39,33.27-0.16c3.73,0.08,4.22-1.33,4.21-4.52c-0.07-27.14-0.13-54.29,0.12-81.43
		c0.09-10.02-2.59-18.8-8.31-27.02c-15.55-22.33-48.72-28.95-69.48-14.71c-3,2.06-5.11,1.83-7.64-0.28
		c-11.34-9.5-24.3-9.19-37.7-6.17C1149.46,183.96,1146.4,186.61,1142.78,188.1z"/>
	<path class="st2" d="M777.94,204.3c0-3.79-1.02-7.2-3.33-10.19c-5.22-6.75-12-10.36-20.66-10.35c-27.88,0.03-55.76,0.07-83.64-0.07
		c-3.38-0.02-4.07,1.04-4.06,4.24c0.13,29.62,0.07,59.25,0.08,88.87c0,29.19,0.03,58.37-0.03,87.56c-0.01,4.07,0.85,7.75,3.13,11.16
		c5.95,8.88,15.49,12.27,25.97,9.11c10.15-3.06,15.79-10.62,15.75-21.45c-0.04-13.71-0.13-27.43-0.42-41.14
		c-0.07-3.23,0.72-4.22,4.08-4.16c12.7,0.21,25.4,0.22,38.09,0.03c13.27-0.2,24.93-11.35,24.97-23.88
		C777.99,264.13,777.92,234.22,777.94,204.3z M733.93,272.62c-0.01,2.66-0.56,5.19-1.46,7.67c-2.1,5.81-3.45,6.82-9.69,6.32
		c-3.78-0.3-7.56,1-11.31-0.19l0,0c-0.03-22.31-0.07-44.62-0.09-66.93c0-2.18-0.28-4.38,0.42-6.52c4.22,0.2,8.43,0.36,12.65,0.61
		c5.16,0.31,7.9,2.7,8.82,7.88c1.37,7.67,0.58,15.43,0.77,23.15C734.28,253.94,733.96,263.28,733.93,272.62z"/>
	<path class="st2" d="M428.92,182.67c-10.94,0.17-21.89,0.17-32.83,0c-3.21-0.05-3.86,1.17-3.85,4.09
		c0.09,22.62,0.07,45.25,0.03,67.87c-0.03,16.72-16.24,27.99-31.98,22.28c-9.68-3.51-15.61-12.45-15.64-23.96
		c-0.07-21.75-0.02-43.5-0.02-65.24c0-2.07,0.32-3.99-2.94-3.98c-28.32,0.09-56.64,0.06-84.96,0.02c-2.79,0-3.33,0.82-2.02,3.32
		c3.33,6.3,6.45,12.71,9.75,19.03c11.06,21.16,22.42,42.17,33.13,63.51c5.28,10.53,9.3,21.72,16.89,30.97
		c13.14,16.02,29.94,21.99,50.24,17.78c9.56-1.98,17.89-6.77,26.88-12.63c0,3.78,0.15,6.68-0.05,9.54c-0.17,2.42,0.83,2.9,3.02,2.88
		c11.53-0.13,23.06-0.21,34.6-0.1c2.8,0.03,3.69-0.66,3.68-3.6c-0.09-42.62-0.08-85.24,0.01-127.86
		C432.87,183.52,431.98,182.62,428.92,182.67z"/>
	<path class="st2" d="M1007.33,314.98c-0.15-14.16-0.07-28.31-0.07-42.47c0.01,0,0.02,0,0.03,0c0-13.14,0.01-26.27,0-39.41
		c-0.01-7.53-1.22-14.81-4.66-21.6c-15.4-30.4-60.63-38.1-85.09-14.36c-6.35,6.16-11.35,13.31-12.66,22.43
		c-0.36,2.52,0.02,3.96,3.29,3.9c11.38-0.21,22.77-0.14,34.16-0.03c2.02,0.02,3.15-0.72,4.26-2.26c2.87-3.98,6.68-6,11.72-4.95
		c3.71,0.77,4.99,3.17,3.75,6.79c-1.6,4.64-5.7,6.05-9.72,7.32c-6.25,1.97-12.67,3.39-18.9,5.41
		c-22.03,7.15-34.26,24.24-33.77,46.54c0.54,24.75,31.11,46.1,54.96,32.78c1.27-0.71,2.67-1.16,3.99-1.77
		c2.46-1.14,4-0.67,3.86,2.32c-0.13,2.75,1.17,3.3,3.71,3.27c12.41-0.13,24.82-0.15,37.22,0.01
		C1006.48,318.96,1007.36,318.04,1007.33,314.98z M961.77,261.72c-0.25,2.01-0.04,4.07-0.04,6.11c0.02,3.49,0.1,6.99-0.71,10.43
		c-1.09,4.62-3.61,7.94-8.51,8.83c-4.7,0.86-8.7-0.62-11.6-4.38c-2.93-3.79-3.4-7.97-0.91-12.23c3.89-6.66,10.03-10.37,17.13-12.59
		C960.11,256.97,962.26,257.82,961.77,261.72z"/>
	<path class="st2" d="M545.85,315.16c-0.12-14.59-0.06-29.18-0.06-43.77c0-13.86-0.02-27.72,0.01-41.58
		c0.01-5.03-0.97-9.85-2.83-14.49c-10.62-26.57-45.24-39.97-72.46-27.76c-13.71,6.15-23.19,16.34-26.92,31.3
		c-0.85,3.4,0.06,4.67,3.78,4.6c11.09-0.2,22.18-0.12,33.27-0.03c2.1,0.02,3.46-0.53,4.69-2.32c2.25-3.29,5.42-5.25,9.58-5.14
		c2.23,0.06,4.57,0.27,5.68,2.52c1.22,2.46,0.42,4.81-1.14,6.94c-2.12,2.89-5.33,3.98-8.53,4.93c-6.27,1.88-12.63,3.47-18.88,5.4
		c-20.9,6.43-32.55,22.92-33.65,44.39c-1.25,24.37,29.41,48.99,54.96,34.9c1.27-0.7,2.63-1.26,3.99-1.79
		c2.2-0.87,4.15-1.1,3.74,2.28c-0.34,2.83,1.03,3.37,3.57,3.35c12.55-0.1,25.1-0.14,37.65,0.02
		C545.3,318.96,545.87,317.89,545.85,315.16z M500.29,261.26c-0.27,2.3-0.05,4.65-0.05,6.98c-0.17,3.9,0.42,7.85-1,11.68
		c-2.35,6.32-8.45,9.04-14.86,6.5c-5.82-2.31-8.99-9.16-6.34-14.69c3.65-7.58,10.36-11.58,18.11-13.91
		C498.71,257.04,500.7,257.75,500.29,261.26z"/>
	<path class="st2" d="M603.7,302.68c1.27-1.69,0.76-3.65,0.76-5.5c0.03-61.69,0.02-123.38,0.04-185.07c0-2.03,0.23-4.06,0.36-6.09
		c0.87-2.14,2.62-3.68,4.38-5.77c-21.13,0-41.7,0-62.27,0c7.38,5.11,6.94,12.58,6.93,20.15c-0.09,59.19-0.03,118.39-0.07,177.58
		c-0.01,6.64,2.56,11.88,7.8,15.76c8.74,6.47,18.43,8.02,28.49,4.04C596.9,315.1,602.45,310.66,603.7,302.68z"/>
	<path class="st2" d="M93.77,25.18c-0.01,22.95-0.05,45.91-0.08,68.87c0,0.42,0,0.83,0,1.25c0.43,2.62,2.5,1.94,4.1,1.94
		c11.96,0.01,23.93-0.05,35.89-0.08c0.09-1.59,0.27-3.19,0.27-4.78c0.01-21.3,0.04-42.61-0.09-63.91c-0.02-3.14,0.71-4.24,4.09-4.18
		c12.4,0.22,24.81,0.23,37.21-0.01c3.61-0.07,4.63,0.82,4.69,4.51c0.37,21.73,1.11,43.45,1.52,65.17c0.06,3.28,1.01,4.23,4.24,4.11
		c5.97-0.22,11.97-0.19,17.94,0.13c3.26,0.18,4.22-0.69,4.19-4.03c-0.16-20.57,0.04-41.15-0.17-61.72
		c-0.05-5.04,0.76-9.29,4.14-13.26c3.29-3.86,3.47-8.56,1.25-13.14c-2.15-4.43-6.12-5.28-10.63-5.27
		C167.44,0.82,132.56,0.79,97.68,0.8c-5.93,0-9.97,4.17-10.08,10.16c-0.08,4.42,2.39,7.66,4.78,10.97
		C94.18,22.45,93.77,23.94,93.77,25.18z"/>
	<path class="st2" d="M1060.45,189.12c-3.43,1.42-4.12,0.7-3.7-2.49c0.47-3.55-0.74-4.76-4.52-4.67
		c-10.94,0.27-21.89,0.17-32.84,0.02c-2.89-0.04-4.04,0.54-4.03,3.77c0.11,42.32,0.1,84.64,0,126.96c-0.01,2.96,0.91,3.61,3.68,3.58
		c11.67-0.14,23.35-0.18,35.03,0.03c3.11,0.06,3.56-1.22,3.63-3.78c0.39-14.72,0.92-29.44,1.34-44.16
		c0.38-13.36,0.69-26.73,1.05-40.95c3.47,2.63,6.21,4.45,9.74,4.8c14.12,1.38,23.65-6.38,25.2-20.48c0.93-8.5-0.35-16.27-8.15-21.13
		C1078.5,185.38,1069.37,185.43,1060.45,189.12z"/>
	<path class="st2" d="M616.33,255.1c12.68-0.16,25.35-0.13,38.03,0c2.7,0.03,3.79-0.52,3.75-3.54c-0.17-12.96-0.08-25.93-0.08-38.9
		c0-2.64-0.35-5.21-1.33-7.69c-4-10.13-12.19-14.44-25.2-13.19c-11.39,1.09-18.9,9.19-18.99,20.55c-0.05,6.26-0.01,12.53-0.01,18.79
		c0,6.7,0.15,13.41-0.08,20.1C612.31,254.31,613.29,255.14,616.33,255.1z"/>
	<path class="st2" d="M654.27,263.92c-6.26,0.25-12.54,0.07-18.81,0.07c-6.12,0-12.26,0.17-18.37-0.07c-3.5-0.14-4.81,0.73-4.7,4.53
		c0.29,9.76,0.28,19.54,0.03,29.3c-0.22,8.6,3.38,14.91,10.61,19.16c7.55,4.44,15.53,5.27,23.29,0.82
		c7.41-4.25,11.67-10.79,11.7-19.62c0.03-10.06-0.06-20.12,0.1-30.18C658.17,264.99,657.47,263.8,654.27,263.92z"/>
	<path class="st2" d="M635.68,128.03c-14.55-0.16-24.57,9.75-25.27,23.85c-0.98,19.67,11.97,28.8,27.4,28.76
		c16.11,0.19,26.01-10.04,26.26-27.15C664.29,138.67,652.63,128.21,635.68,128.03z"/>
	<path class="st2" d="M893.57,312.58c0.04-32.68,0.03-65.36-0.01-98.03c0-2.02,0.15-4.1-0.88-5.99
		c-1.65-12.64-15.8-25.27-28.91-25.53c-9.77-0.19-19.56-0.26-29.33,0.06c-3.99,0.13-4.82-1.14-4.79-4.89
		c0.16-24.51,0.03-49.03,0.15-73.54c0.01-2.94-0.57-4.02-3.77-3.96c-11.53,0.2-23.06,0.14-34.59,0.03
		c-2.63-0.02-3.84,0.38-3.83,3.49c0.09,69.46,0.08,138.92,0.01,208.37c0,2.79,0.7,3.75,3.64,3.71c11.38-0.17,22.77-0.19,34.15,0.01
		c3.31,0.06,4.42-0.64,4.4-4.23c-0.16-29.62-0.09-59.24-0.07-88.87c0-6.54,3.22-9.94,9.73-10.41c8.57-0.62,12.75,3.25,12.76,11.92
		c0.03,29.18,0.02,58.37,0.03,87.55c0,1.94-0.68,4.08,2.77,4.01c12.54-0.22,25.09-0.21,37.63-0.28
		C894.37,315.24,893.57,313.71,893.57,312.58z"/>
	<path class="st2" d="M1302.54,163.89h0.84c0.87,0,1.65,0.24,2.34,0.72c0.51,0.36,1.08,1.16,1.73,2.38l5.1,9.43h10.78l-4.62-8.94
		c-0.22-0.45-0.67-1.09-1.34-1.92c-0.67-0.83-1.17-1.37-1.53-1.62c-0.52-0.38-1.35-0.76-2.48-1.14c1.42-0.32,2.54-0.73,3.35-1.22
		c1.28-0.77,2.28-1.78,3.01-3.02c0.73-1.24,1.1-2.72,1.1-4.43c0-1.97-0.48-3.63-1.43-5c-0.95-1.37-2.21-2.31-3.77-2.81
		c-1.56-0.51-3.81-0.76-6.76-0.76h-15.9v30.87h9.58V163.89z M1302.54,151.78h4.19c1.74,0,2.93,0.27,3.56,0.8
		c0.63,0.53,0.95,1.3,0.95,2.29c0,0.67-0.2,1.27-0.6,1.79c-0.4,0.52-0.92,0.84-1.55,0.97c-1.25,0.28-2.09,0.42-2.53,0.42h-4.02
		V151.78z"/>
	<path class="st2" d="M1273.71,160.44c0,18.11,14.73,32.84,32.84,32.84c18.11,0,32.84-14.73,32.84-32.84s-14.73-32.84-32.84-32.84
		C1288.44,127.6,1273.71,142.33,1273.71,160.44z M1306.55,133.08c15.09,0,27.36,12.27,27.36,27.36s-12.27,27.36-27.36,27.36
		c-15.09,0-27.36-12.27-27.36-27.36S1291.46,133.08,1306.55,133.08z"/>
</g>
</svg>
