<?xml version="1.0" encoding="utf-8"?>
<!-- Generator: Adobe Illustrator 28.3.0, SVG Export Plug-In . SVG Version: 6.00 Build 0)  -->
<svg version="1.1" id="Capa_1" xmlns="http://www.w3.org/2000/svg" xmlns:xlink="http://www.w3.org/1999/xlink" x="0px" y="0px"
	 viewBox="0 0 566.93 566.93" style="enable-background:new 0 0 566.93 566.93;" xml:space="preserve">
<style type="text/css">
	.st0{fill:#0071B2;}
	.st1{fill:#FFFFFF;}
	.st2{fill:#EF1615;}
	.st3{fill:url(#SVGID_1_);}
	.st4{fill:url(#SVGID_00000120528737790966152870000002455689220822253236_);}
	.st5{fill:#78B24E;}
	.st6{fill:#78B34E;}
	.st7{fill:#7CB253;}
	.st8{fill:#85AD62;}
	.st9{fill:#87AE64;}
	.st10{fill:#00578C;}
	.st11{fill:#77B34D;}
	.st12{fill:#78B34F;}
	.st13{fill:#79B24D;}
	.st14{fill:#7AB24D;}
	.st15{fill:#79B24E;}
	.st16{fill:#78B34D;}
	.st17{fill:#78B24F;}
	.st18{fill:#7BB24E;}
	.st19{fill:#7AB24E;}
	.st20{fill:#7BB150;}
	.st21{fill:#79B251;}
	.st22{fill:#7AB34C;}
	.st23{fill:#77B34E;}
	.st24{fill:#79B34D;}
	.st25{fill:#7AB34D;}
	.st26{fill:#7BB351;}
	.st27{fill:#7CB256;}
	.st28{fill:#7EB156;}
	.st29{fill:#80B158;}
	.st30{fill:#7DB357;}
	.st31{fill:#83B359;}
	.st32{fill:#81AD5A;}
	.st33{fill:#8BAE76;}
	.st34{fill:#8DAE70;}
	.st35{fill:#90AC6F;}
	.st36{fill:#89AA73;}
	.st37{fill:#05578C;}
	.st38{fill:#03578E;}
	.st39{opacity:0.42;}
	.st40{fill:#936757;}
	.st41{fill:#7C5B49;}
	.st42{fill:#6E4F41;}
	.st43{fill:#7F5E4D;}
	.st44{opacity:0.43;fill:#D6CBC4;}
	.st45{fill:#4F382E;}
	.st46{fill:#EBCDBA;}
	.st47{fill:#E8CDB9;}
	.st48{fill:url(#SVGID_00000158748204813846909380000001332741142410234762_);}
	.st49{opacity:0.55;}
	.st50{opacity:0.76;}
	.st51{opacity:0.66;fill:url(#SVGID_00000134233567850468508670000006634358381932001682_);}
	.st52{opacity:0.61;fill:url(#SVGID_00000032616451140057809460000008535186875785603503_);}
	.st53{opacity:0.66;fill:url(#SVGID_00000127044370075962598930000011548971493389598632_);}
	.st54{opacity:0.61;fill:url(#SVGID_00000178891099430776341130000009922644811677303689_);}
	.st55{opacity:0.66;fill:url(#SVGID_00000001635679987791656360000012961882141745133496_);}
	.st56{opacity:0.61;fill:url(#SVGID_00000043457842192486290220000009458994178551118244_);}
	.st57{opacity:0.66;fill:url(#SVGID_00000059277733340617929280000005844362796214070401_);}
	.st58{opacity:0.61;fill:url(#SVGID_00000139996427628792821340000012945675764804553633_);}
	.st59{opacity:0.66;fill:url(#SVGID_00000176017584940181356520000017912522254682677675_);}
	.st60{opacity:0.61;fill:url(#SVGID_00000038380964730879671470000005399753544236865416_);}
	.st61{opacity:0.66;fill:url(#SVGID_00000173134534994671447890000010860060732971597205_);}
	.st62{opacity:0.61;fill:url(#SVGID_00000172429207743379508720000018243079293858057120_);}
	.st63{opacity:0.66;fill:url(#SVGID_00000042010289660386433210000000350046824089405598_);}
	.st64{opacity:0.61;fill:url(#SVGID_00000179610187491871913400000010876226741282515611_);}
	.st65{opacity:0.66;fill:url(#SVGID_00000127020338993462492750000010751596019356266125_);}
	.st66{opacity:0.61;fill:url(#SVGID_00000006678012527350070060000009800502504873130881_);}
	.st67{opacity:0.66;fill:url(#SVGID_00000164478503360326055230000013442938077558454450_);}
	.st68{opacity:0.61;fill:url(#SVGID_00000060719188524410418330000007539755197525721235_);}
	.st69{opacity:0.66;fill:url(#SVGID_00000018237356573575500490000015761281143753478062_);}
	.st70{opacity:0.61;fill:url(#SVGID_00000012468537298471237690000013876298473712962993_);}
	.st71{opacity:0.66;fill:url(#SVGID_00000003063587609989722620000015877221276882743464_);}
	.st72{opacity:0.61;fill:url(#SVGID_00000048472510308524802790000009763544316144344218_);}
	.st73{opacity:0.66;fill:url(#SVGID_00000156549041174814948620000012220791830611337131_);}
	.st74{opacity:0.61;fill:url(#SVGID_00000178198001350826924690000012300421558051366318_);}
	.st75{opacity:0.66;fill:url(#SVGID_00000112602376446601508580000002621353400212699034_);}
	.st76{opacity:0.61;fill:url(#SVGID_00000130607008862759288210000004618203108242142135_);}
	.st77{opacity:0.66;fill:url(#SVGID_00000003805782500317155070000001572823243578640558_);}
	.st78{opacity:0.61;fill:url(#SVGID_00000075872802637130289600000008558935214094711180_);}
	.st79{opacity:0.66;fill:url(#SVGID_00000080189241903418424040000013172104238809939081_);}
	.st80{opacity:0.61;fill:url(#SVGID_00000044858178371263056830000009509372070074266753_);}
	.st81{opacity:0.66;fill:url(#SVGID_00000167396654928237395540000017214024859206112958_);}
	.st82{opacity:0.61;fill:url(#SVGID_00000075127684827431855700000009955950429477511812_);}
	.st83{opacity:0.66;fill:url(#SVGID_00000005945590751493974310000006074220679897751684_);}
	.st84{opacity:0.61;fill:url(#SVGID_00000049223801990031983800000017230335527405729982_);}
	.st85{opacity:0.66;fill:url(#SVGID_00000021807024376686174450000010111049147098607794_);}
	.st86{opacity:0.61;fill:url(#SVGID_00000004534910413430896900000007429127708554869683_);}
	.st87{fill:#A6CA56;}
	.st88{fill:#0076B3;}
	.st89{fill:none;stroke:#0076B3;stroke-width:0.0208;stroke-miterlimit:10;}
	.st90{opacity:0.12;}
	.st91{fill-rule:evenodd;clip-rule:evenodd;fill:#0076B3;stroke:#0076B3;stroke-width:0.104;stroke-miterlimit:3.8637;}
	.st92{fill-rule:evenodd;clip-rule:evenodd;fill:#C4DA8F;}
	.st93{fill-rule:evenodd;clip-rule:evenodd;fill:#FFFFFF;}
	.st94{fill:#573734;}
	.st95{fill:#8A6552;}
	.st96{opacity:0.33;fill:#6E4F41;}
	.st97{fill:#010101;}
	.st98{fill:#5C4436;}
	.st99{fill:#735345;}
	.st100{opacity:0.21;fill:#B5806B;}
	.st101{fill:#64483B;}
	.st102{fill:#D9C0AE;}
	.st103{fill:#1D1D1C;}
	.st104{fill:#EFE0CE;}
	.st105{opacity:0.6;fill:#7C3B11;}
	.st106{fill:#70554F;}
	.st107{fill:#F08588;}
	.st108{fill:#2E2E2D;}
	.st109{fill:#593A30;}
	.st110{clip-path:url(#SVGID_00000158013244809258889060000000592336052843773348_);fill:#FFFFFF;}
	.st111{clip-path:url(#SVGID_00000158013244809258889060000000592336052843773348_);}
</style>
<g>
	<radialGradient id="SVGID_1_" cx="283.4646" cy="283.4646" r="651.6117" gradientUnits="userSpaceOnUse">
		<stop  offset="0.3333" style="stop-color:#EF1615"/>
		<stop  offset="1" style="stop-color:#770000"/>
	</radialGradient>
	<rect class="st3" width="566.93" height="566.93"/>
	<g>
		<path class="st1" d="M179.9,338.58c-0.83-0.42-1.8-0.64-2.88-0.64h-4.52v10.24h4.52c1.09,0,2.06-0.21,2.88-0.64
			c0.84-0.43,1.5-1.03,1.97-1.8c0.47-0.77,0.71-1.67,0.71-2.68c0-1.02-0.24-1.93-0.71-2.69C181.4,339.62,180.74,339.01,179.9,338.58
			z M174.99,340.17h1.95c0.65,0,1.22,0.12,1.69,0.37c0.46,0.24,0.81,0.57,1.06,1c0.25,0.43,0.38,0.94,0.38,1.54
			c0,0.58-0.13,1.1-0.38,1.53c-0.25,0.43-0.6,0.76-1.06,1c-0.47,0.24-1.03,0.37-1.69,0.37h-1.95V340.17z"/>
		<polygon class="st1" points="197.1,344.08 201.69,344.08 201.69,341.9 197.1,341.9 197.1,340.16 202.28,340.16 202.28,337.95 
			194.6,337.95 194.6,348.19 202.47,348.19 202.47,345.98 197.1,345.98 		"/>
		<path class="st1" d="M220.82,342.81c-0.35-0.2-0.75-0.37-1.18-0.5c-0.41-0.12-0.83-0.23-1.24-0.32c-0.4-0.09-0.77-0.19-1.09-0.29
			c-0.28-0.08-0.5-0.2-0.67-0.34c-0.12-0.11-0.18-0.24-0.18-0.43c0-0.17,0.05-0.31,0.14-0.44c0.1-0.13,0.27-0.25,0.51-0.34
			c0.49-0.19,1.36-0.23,2.27,0.02c0.42,0.11,0.83,0.29,1.23,0.53l0.36,0.22l0.83-2.04l-0.25-0.16c-0.45-0.29-0.98-0.52-1.58-0.67
			c-0.59-0.15-1.19-0.23-1.79-0.23c-0.92,0-1.69,0.14-2.31,0.42c-0.63,0.29-1.11,0.68-1.42,1.17c-0.31,0.49-0.47,1.03-0.47,1.62
			c0,0.58,0.12,1.06,0.37,1.45c0.24,0.37,0.55,0.68,0.93,0.9c0.35,0.21,0.75,0.38,1.18,0.51c0.41,0.13,0.83,0.24,1.24,0.33
			c0.39,0.09,0.75,0.18,1.07,0.28c0.28,0.09,0.51,0.21,0.68,0.35c0.13,0.11,0.18,0.24,0.18,0.42c0,0.15-0.05,0.29-0.14,0.41
			c-0.1,0.13-0.27,0.24-0.51,0.32c-0.27,0.09-0.63,0.14-1.09,0.14c-0.54,0-1.08-0.09-1.61-0.28c-0.52-0.18-0.96-0.42-1.31-0.69
			l-0.37-0.29l-0.91,2.05l0.21,0.18c0.43,0.37,1.02,0.67,1.74,0.89c0.71,0.22,1.47,0.34,2.24,0.34c0.92,0,1.7-0.14,2.31-0.42
			c0.63-0.29,1.11-0.68,1.43-1.17c0.31-0.49,0.47-1.03,0.47-1.6c0-0.57-0.12-1.05-0.36-1.43
			C221.52,343.33,221.2,343.03,220.82,342.81z"/>
		<path class="st1" d="M241.43,338.58c-0.83-0.42-1.8-0.64-2.88-0.64h-4.52v10.24h4.52c1.09,0,2.06-0.21,2.88-0.64
			c0.84-0.43,1.5-1.03,1.97-1.8c0.47-0.77,0.71-1.67,0.71-2.68c0-1.02-0.24-1.93-0.71-2.69
			C242.92,339.62,242.26,339.01,241.43,338.58z M241.59,343.07c0,0.58-0.13,1.1-0.38,1.53c-0.25,0.43-0.6,0.76-1.06,1
			c-0.47,0.24-1.03,0.37-1.69,0.37h-1.95v-5.8h1.95c0.65,0,1.22,0.12,1.69,0.37c0.46,0.24,0.81,0.57,1.06,1
			C241.46,341.96,241.59,342.48,241.59,343.07z"/>
		<polygon class="st1" points="258.62,344.08 263.22,344.08 263.22,341.9 258.62,341.9 258.62,340.16 263.8,340.16 263.8,337.95 
			256.13,337.95 256.13,348.19 263.99,348.19 263.99,345.98 258.62,345.98 		"/>
		<polygon class="st1" points="318.83,340.16 320.85,340.16 320.85,348.19 323.34,348.19 323.34,337.95 318.83,337.95 		"/>
		<path class="st1" d="M341.36,338.41c-0.67-0.4-1.48-0.6-2.41-0.6c-0.69,0-1.34,0.14-1.92,0.42c-0.59,0.28-1.06,0.68-1.4,1.19
			c-0.35,0.52-0.52,1.14-0.52,1.84c0,0.66,0.17,1.25,0.5,1.74c0.33,0.49,0.77,0.88,1.32,1.15c0.54,0.26,1.16,0.4,1.82,0.4
			c0.51,0,0.98-0.07,1.4-0.21c0.26-0.08,0.49-0.19,0.71-0.32c-0.1,0.58-0.31,1.05-0.63,1.39c-0.46,0.48-1.07,0.72-1.87,0.72
			c-0.3,0-0.59-0.03-0.87-0.09c-0.26-0.06-0.51-0.16-0.74-0.31l-0.34-0.23l-0.98,1.99l0.27,0.18c0.35,0.23,0.77,0.4,1.25,0.51
			c0.46,0.11,0.95,0.16,1.45,0.16c0.98,0,1.86-0.21,2.61-0.63c0.76-0.42,1.36-1.05,1.78-1.86c0.42-0.8,0.63-1.79,0.63-2.93
			c0-1.07-0.18-1.99-0.52-2.74C342.56,339.41,342.04,338.82,341.36,338.41z M340.66,341.23c-0.01,0.21-0.07,0.4-0.18,0.58
			c-0.13,0.19-0.3,0.34-0.53,0.46c-0.24,0.12-0.52,0.17-0.85,0.17c-0.49,0-0.88-0.12-1.15-0.35c-0.26-0.22-0.39-0.52-0.39-0.9
			c0-0.27,0.06-0.48,0.18-0.66c0.12-0.18,0.29-0.32,0.51-0.43c0.23-0.11,0.5-0.16,0.81-0.16c0.37,0,0.67,0.06,0.91,0.18
			c0.23,0.12,0.4,0.26,0.52,0.45c0.02,0.03,0.04,0.06,0.06,0.1l-0.02-0.02L340.66,341.23z"/>
		<polygon class="st1" points="354.5,341.79 356.87,341.79 356.87,340.17 359.69,340.17 356.11,348.19 358.8,348.19 362.62,339.57 
			362.62,337.95 354.5,337.95 		"/>
		<path class="st1" d="M380.16,338.44c-0.65-0.42-1.41-0.63-2.23-0.63c-0.82,0-1.57,0.21-2.23,0.63c-0.66,0.42-1.18,1.03-1.56,1.82
			c-0.37,0.77-0.55,1.72-0.55,2.81c0,1.09,0.19,2.04,0.55,2.81c0.37,0.79,0.9,1.4,1.56,1.82c0.66,0.42,1.41,0.63,2.23,0.63
			c0.83,0,1.58-0.21,2.23-0.63c0.65-0.42,1.18-1.03,1.55-1.82c0.37-0.78,0.56-1.72,0.56-2.82c0-1.09-0.19-2.04-0.56-2.81
			C381.33,339.46,380.81,338.85,380.16,338.44z M379.76,343.07c0,0.71-0.09,1.31-0.26,1.76c-0.16,0.43-0.38,0.75-0.64,0.94
			c-0.26,0.19-0.57,0.29-0.94,0.29c-0.35,0-0.65-0.1-0.92-0.29c-0.27-0.2-0.49-0.51-0.65-0.94c-0.17-0.46-0.26-1.05-0.26-1.76
			c0-0.72,0.09-1.32,0.26-1.77c0.16-0.42,0.38-0.74,0.65-0.93c0.27-0.2,0.57-0.29,0.92-0.29c0.37,0,0.68,0.09,0.94,0.29
			c0.27,0.2,0.48,0.51,0.64,0.94C379.68,341.75,379.76,342.35,379.76,343.07z"/>
		<path class="st1" d="M157.47,341.47H57.69c-0.55,0-1,0.45-1,1c0,0.55,0.45,1,1,1h99.78c0.55,0,1-0.45,1-1
			C158.47,341.92,158.02,341.47,157.47,341.47z"/>
		<path class="st1" d="M507.79,341.47H396.01c-0.55,0-1,0.45-1,1c0,0.55,0.45,1,1,1h111.77c0.55,0,1-0.45,1-1
			C508.79,341.92,508.34,341.47,507.79,341.47z"/>
		<polygon class="st1" points="220.98,238.97 208.38,238.97 208.38,218.58 202.57,218.58 202.57,243.71 220.98,243.71 		"/>
		<path class="st1" d="M230.91,238.32h11.65l2.23,5.39h6.1l-11.24-25.13h-5.74l-11.2,25.13h5.96L230.91,238.32z M236.74,224.29
			l3.98,9.62h-7.98L236.74,224.29z"/>
		<path class="st1" d="M275.63,241.89c1.7-1.21,2.55-2.89,2.55-5.04c0-1.46-0.34-2.69-1.02-3.7c-0.68-1.01-1.63-1.76-2.85-2.28
			c-0.22-0.09-0.45-0.18-0.68-0.25c0.97-0.51,1.75-1.21,2.34-2.08c0.65-0.97,0.97-2.11,0.97-3.43c0-1.96-0.8-3.54-2.39-4.74
			c-1.59-1.2-3.97-1.8-7.13-1.8h-12.28v25.13h13C271.43,243.71,273.93,243.1,275.63,241.89z M266.69,222.96
			c1.41,0,2.5,0.25,3.25,0.74c0.75,0.49,1.13,1.23,1.13,2.21c0,1.01-0.38,1.75-1.13,2.24c-0.75,0.49-1.84,0.74-3.25,0.74h-5.78
			v-5.92H266.69z M260.91,239.33v-6.21h6.79c1.51,0,2.65,0.26,3.43,0.77c0.78,0.52,1.17,1.3,1.17,2.35c0,1.08-0.39,1.86-1.17,2.35
			c-0.78,0.49-1.92,0.74-3.43,0.74H260.91z"/>
		<path class="st1" d="M286.52,240.44c1.23,1.17,2.69,2.08,4.38,2.73c1.69,0.65,3.52,0.97,5.51,0.97c1.96,0,3.78-0.32,5.44-0.97
			c1.66-0.65,3.11-1.55,4.34-2.71c1.23-1.16,2.2-2.54,2.89-4.13c0.69-1.59,1.04-3.32,1.04-5.19c0-1.89-0.35-3.62-1.04-5.19
			c-0.69-1.57-1.66-2.94-2.89-4.11c-1.23-1.17-2.68-2.08-4.34-2.73c-1.66-0.65-3.49-0.97-5.48-0.97c-1.96,0-3.78,0.32-5.46,0.97
			c-1.68,0.65-3.14,1.56-4.38,2.73c-1.24,1.17-2.21,2.55-2.89,4.13c-0.68,1.58-1.02,3.3-1.02,5.17s0.34,3.59,1.02,5.17
			C284.33,237.89,285.29,239.27,286.52,240.44z M289.11,227.87c0.4-0.98,0.95-1.83,1.67-2.55c0.72-0.72,1.55-1.27,2.5-1.65
			c0.95-0.38,1.98-0.57,3.11-0.57c1.12,0,2.17,0.19,3.12,0.57c0.96,0.38,1.79,0.93,2.5,1.65c0.71,0.72,1.26,1.57,1.65,2.55
			c0.39,0.98,0.59,2.07,0.59,3.27c0,1.2-0.2,2.29-0.59,3.27c-0.4,0.98-0.95,1.83-1.67,2.55c-0.72,0.72-1.55,1.27-2.5,1.65
			c-0.95,0.38-1.98,0.57-3.11,0.57c-1.13,0-2.17-0.19-3.12-0.57c-0.96-0.38-1.79-0.93-2.5-1.65c-0.71-0.72-1.26-1.57-1.65-2.57
			c-0.4-0.99-0.59-2.08-0.59-3.25C288.51,229.94,288.71,228.86,289.11,227.87z"/>
		<path class="st1" d="M321.94,236.71H327c0.09,0,0.18,0,0.27-0.01l4.83,7.01h6.28l-5.61-8.06c0.02-0.01,0.03-0.01,0.05-0.02
			c1.63-0.72,2.88-1.75,3.77-3.11c0.89-1.35,1.33-2.96,1.33-4.83c0-1.89-0.44-3.52-1.33-4.88c-0.89-1.36-2.14-2.41-3.77-3.14
			c-1.63-0.73-3.57-1.1-5.82-1.1h-10.88v25.13h5.82V236.71z M330.7,224.46c0.89,0.77,1.33,1.84,1.33,3.23
			c0,1.36-0.44,2.44-1.33,3.21c-0.89,0.78-2.23,1.17-4.02,1.17h-4.74v-8.76h4.74C328.47,223.31,329.81,223.7,330.7,224.46z"/>
		<path class="st1" d="M349.02,238.32h11.65l2.23,5.39h6.1l-11.24-25.13h-5.74l-11.2,25.13h5.96L349.02,238.32z M354.86,224.29
			l3.98,9.62h-7.98L354.86,224.29z"/>
		<polygon class="st1" points="377.19,243.71 383.01,243.71 383.01,223.31 391.05,223.31 391.05,218.58 369.15,218.58 
			369.15,223.31 377.19,223.31 		"/>
		<path class="st1" d="M397.74,240.44c1.23,1.17,2.69,2.08,4.38,2.73c1.69,0.65,3.52,0.97,5.51,0.97c1.96,0,3.78-0.32,5.44-0.97
			c1.66-0.65,3.11-1.55,4.34-2.71c1.23-1.16,2.2-2.54,2.89-4.13c0.69-1.59,1.04-3.32,1.04-5.19c0-1.89-0.35-3.62-1.04-5.19
			c-0.69-1.57-1.66-2.94-2.89-4.11c-1.23-1.17-2.68-2.08-4.34-2.73c-1.66-0.65-3.49-0.97-5.48-0.97c-1.96,0-3.78,0.32-5.46,0.97
			c-1.68,0.65-3.14,1.56-4.38,2.73c-1.24,1.17-2.21,2.55-2.89,4.13c-0.68,1.58-1.02,3.3-1.02,5.17s0.34,3.59,1.02,5.17
			C395.55,237.89,396.51,239.27,397.74,240.44z M400.33,227.87c0.4-0.98,0.95-1.83,1.67-2.55c0.72-0.72,1.55-1.27,2.5-1.65
			c0.95-0.38,1.98-0.57,3.11-0.57c1.12,0,2.17,0.19,3.12,0.57c0.96,0.38,1.79,0.93,2.5,1.65c0.71,0.72,1.26,1.57,1.65,2.55
			c0.39,0.98,0.59,2.07,0.59,3.27c0,1.2-0.2,2.29-0.59,3.27c-0.4,0.98-0.95,1.83-1.67,2.55c-0.72,0.72-1.55,1.27-2.5,1.65
			c-0.95,0.38-1.98,0.57-3.11,0.57c-1.13,0-2.17-0.19-3.12-0.57c-0.96-0.38-1.79-0.93-2.5-1.65c-0.71-0.72-1.26-1.57-1.65-2.57
			c-0.39-0.99-0.59-2.08-0.59-3.25C399.74,229.94,399.93,228.86,400.33,227.87z"/>
		<path class="st1" d="M433.16,236.71h5.06c0.09,0,0.18,0,0.27-0.01l4.83,7.01h6.28l-5.61-8.06c0.02-0.01,0.03-0.01,0.05-0.02
			c1.63-0.72,2.88-1.75,3.77-3.11c0.89-1.35,1.33-2.96,1.33-4.83c0-1.89-0.44-3.52-1.33-4.88c-0.89-1.36-2.14-2.41-3.77-3.14
			c-1.63-0.73-3.57-1.1-5.82-1.1h-10.88v25.13h5.82V236.71z M441.92,224.46c0.89,0.77,1.33,1.84,1.33,3.23
			c0,1.36-0.44,2.44-1.33,3.21c-0.89,0.78-2.23,1.17-4.02,1.17h-4.74v-8.76h4.74C439.69,223.31,441.03,223.7,441.92,224.46z"/>
		<rect x="455.35" y="218.58" class="st1" width="5.82" height="25.13"/>
		<path class="st1" d="M471.05,240.44c1.23,1.17,2.69,2.08,4.38,2.73c1.69,0.65,3.52,0.97,5.51,0.97c1.96,0,3.78-0.32,5.44-0.97
			c1.66-0.65,3.11-1.55,4.34-2.71c1.23-1.16,2.2-2.54,2.89-4.13c0.69-1.59,1.04-3.32,1.04-5.19c0-1.89-0.35-3.62-1.04-5.19
			c-0.69-1.57-1.66-2.94-2.89-4.11c-1.23-1.17-2.68-2.08-4.34-2.73c-1.66-0.65-3.49-0.97-5.48-0.97c-1.96,0-3.78,0.32-5.46,0.97
			c-1.68,0.65-3.14,1.56-4.38,2.73c-1.24,1.17-2.21,2.55-2.89,4.13c-0.68,1.58-1.02,3.3-1.02,5.17s0.34,3.59,1.02,5.17
			C468.86,237.89,469.82,239.27,471.05,240.44z M473.64,227.87c0.4-0.98,0.95-1.83,1.67-2.55c0.72-0.72,1.55-1.27,2.5-1.65
			c0.95-0.38,1.98-0.57,3.11-0.57c1.12,0,2.17,0.19,3.12,0.57c0.96,0.38,1.79,0.93,2.5,1.65c0.71,0.72,1.26,1.57,1.65,2.55
			c0.39,0.98,0.59,2.07,0.59,3.27c0,1.2-0.2,2.29-0.59,3.27c-0.4,0.98-0.95,1.83-1.67,2.55c-0.72,0.72-1.55,1.27-2.5,1.65
			c-0.95,0.38-1.98,0.57-3.11,0.57c-1.13,0-2.17-0.19-3.12-0.57c-0.96-0.38-1.79-0.93-2.5-1.65c-0.71-0.72-1.26-1.57-1.65-2.57
			c-0.39-0.99-0.59-2.08-0.59-3.25C473.05,229.94,473.24,228.86,473.64,227.87z"/>
		<path class="st1" d="M69.76,326.2c19.28-0.19,38.56-0.07,57.84-0.11c1.43,0,2.44,0.42,3.27,1.56c1.23,1.67,2.5,3.31,3.83,4.89
			c1.17,1.38,2.64,2.54,4.49,2.61c3.54,0.13,7.09,0.04,10.95,0.04c-0.37-0.5-0.54-0.74-0.72-0.97c-1.5-1.83-3.07-3.62-4.26-5.68
			c-0.95-1.66-0.82-2.04,0.9-2.75c0.91-0.38,1.83-0.73,2.72-1.16c3.4-1.64,5.6-4.21,6.48-7.96c0.85-3.59-0.42-6.69-1.89-9.8
			c-3.87-8.16-8.52-15.91-12.59-23.97c-4.63-9.16-9.55-18.17-14.31-27.27c-0.34-0.66-0.76-0.8-1.4-0.79
			c-2.27,0.02-4.55,0.01-6.82,0.01c-9.59,0-19.18-0.01-28.77,0c-0.7,0-1.44-0.2-1.92,0.69c-2.64,4.91-5.39,9.76-7.98,14.69
			c-3.94,7.5-7.74,15.08-11.7,22.58c-2.9,5.5-6.26,10.74-8.75,16.46c-1.7,3.92-1.63,7.68,0.77,11.26
			C62.26,324.04,65.1,326.24,69.76,326.2z M92.49,310.02c2.66-11.68,5.24-23.37,7.8-35.07c0.18-0.84,0.5-1.12,1.37-1.11
			c6.47,0.06,12.94,0.08,19.41,0.07c0.84,0,1.34,0.19,1.68,1.04c4.38,11.15,8.8,22.28,13.21,33.42c0.16,0.4,0.56,0.85,0.26,1.23
			c-0.42,0.53-0.91,1-1.66,0.17c-1.45-1.61-3.05-3.09-4.54-4.67c-0.36-0.38-0.68-0.64-1.24-0.64c-4.05,0.02-8.1,0.01-12.58,0.01
			c1.41,1.68,2.58,3.06,3.74,4.45c0.47,0.56,1.23,1.24,0.96,1.86c-0.25,0.58-1.24,0.23-1.9,0.24c-8.39,0.2-16.78,0.36-25.18,0.58
			C92.53,311.64,92.16,311.46,92.49,310.02z"/>
		<path class="st1" d="M443.66,281.84c-0.36-0.67,0.32-1.81-1.21-1.77c-4.05,0.1-8.11,0.05-12.16,0.02
			c-0.78-0.01-1.12,0.16-1.12,1.05c0.03,14.38,0.03,28.76,0,43.14c0,1.11,0.45,1.28,1.41,1.27c3.81-0.04,7.61-0.07,11.42,0.01
			c1.24,0.03,1.55-0.33,1.54-1.55c-0.08-7.02-0.07-14.03-0.08-21.05c-0.01-2.72-0.03-5.44,0.02-8.15c0.05-2.18,1.27-3.56,3.21-3.78
			c2.44-0.29,4.26,1.52,4.27,4.32c0.04,9.59,0.08,19.17,0.05,28.76c0,1.18,0.34,1.49,1.5,1.47c4.15-0.07,8.3-0.1,12.45,0
			c1.44,0.03,1.81-0.37,1.8-1.8c-0.07-8.99-0.04-17.99-0.03-26.98c0-0.83,0.06-1.69,0.23-2.5c0.4-1.84,1.82-3.02,3.52-3.04
			c2.01-0.02,3.39,1.01,3.83,3c0.19,0.86,0.22,1.76,0.22,2.65c0.02,9.04,0.04,18.09-0.02,27.13c-0.01,1.37,0.42,1.63,1.67,1.59
			c3.75-0.1,7.51-0.13,11.27-0.05c1.26,0.03,1.43-0.45,1.43-1.53c-0.02-9.19-0.04-18.38,0.04-27.57c0.03-3.39-0.88-6.37-2.82-9.15
			c-5.27-7.56-16.5-9.8-23.53-4.98c-1.02,0.7-1.73,0.62-2.59-0.1c-3.84-3.22-8.23-3.11-12.77-2.09
			C445.92,280.44,444.89,281.34,443.66,281.84z"/>
		<path class="st1" d="M320.12,287.32c0-1.28-0.35-2.44-1.13-3.45c-1.77-2.29-4.06-3.51-7-3.5c-9.44,0.01-18.88,0.02-28.32-0.02
			c-1.15-0.01-1.38,0.35-1.38,1.44c0.04,10.03,0.03,20.06,0.03,30.09c0,9.88,0.01,19.77-0.01,29.65c0,1.38,0.29,2.62,1.06,3.78
			c2.02,3.01,5.24,4.16,8.8,3.09c3.44-1.03,5.35-3.6,5.33-7.26c-0.01-4.64-0.04-9.29-0.14-13.93c-0.02-1.09,0.24-1.43,1.38-1.41
			c4.3,0.07,8.6,0.08,12.9,0.01c4.49-0.07,8.44-3.84,8.45-8.08C320.13,307.59,320.11,297.45,320.12,287.32z M305.21,310.46
			c0,0.9-0.19,1.76-0.49,2.6c-0.71,1.97-1.17,2.31-3.28,2.14c-1.28-0.1-2.56,0.34-3.83-0.07l0,0c-0.01-7.55-0.02-15.11-0.03-22.66
			c0-0.74-0.09-1.48,0.14-2.21c1.43,0.07,2.86,0.12,4.28,0.21c1.75,0.1,2.67,0.91,2.99,2.67c0.47,2.6,0.2,5.23,0.26,7.84
			C305.33,304.13,305.23,307.3,305.21,310.46z"/>
		<path class="st1" d="M201.93,280c-3.7,0.06-7.41,0.06-11.12,0c-1.09-0.02-1.31,0.4-1.3,1.39c0.03,7.66,0.02,15.32,0.01,22.98
			c-0.01,5.66-5.5,9.48-10.83,7.54c-3.28-1.19-5.29-4.22-5.3-8.11c-0.02-7.36-0.01-14.73-0.01-22.09c0-0.7,0.11-1.35-1-1.35
			c-9.59,0.03-19.18,0.02-28.77,0.01c-0.95,0-1.13,0.28-0.68,1.12c1.13,2.13,2.18,4.3,3.3,6.44c3.74,7.17,7.59,14.28,11.22,21.5
			c1.79,3.57,3.15,7.36,5.72,10.49c4.45,5.42,10.14,7.45,17.01,6.02c3.24-0.67,6.06-2.29,9.1-4.28c0,1.28,0.05,2.26-0.02,3.23
			c-0.06,0.82,0.28,0.98,1.02,0.97c3.9-0.04,7.81-0.07,11.71-0.03c0.95,0.01,1.25-0.22,1.25-1.22c-0.03-14.43-0.03-28.86,0.01-43.3
			C203.27,280.29,202.97,279.99,201.93,280z"/>
		<path class="st1" d="M397.79,324.8c-0.05-4.79-0.02-9.59-0.02-14.38c0,0,0.01,0,0.01,0c0-4.45,0-8.9,0-13.34
			c0-2.55-0.41-5.01-1.58-7.31c-5.22-10.29-20.53-12.9-28.81-4.86c-2.15,2.09-3.84,4.51-4.29,7.6c-0.12,0.85,0.01,1.34,1.11,1.32
			c3.85-0.07,7.71-0.05,11.57-0.01c0.68,0.01,1.07-0.24,1.44-0.76c0.97-1.35,2.26-2.03,3.97-1.68c1.26,0.26,1.69,1.07,1.27,2.3
			c-0.54,1.57-1.93,2.05-3.29,2.48c-2.12,0.67-4.29,1.15-6.4,1.83c-7.46,2.42-11.6,8.21-11.44,15.76
			c0.18,8.38,10.54,15.61,18.61,11.1c0.43-0.24,0.9-0.39,1.35-0.6c0.83-0.39,1.35-0.23,1.31,0.79c-0.04,0.93,0.4,1.12,1.26,1.11
			c4.2-0.04,8.4-0.05,12.6,0C397.51,326.15,397.8,325.84,397.79,324.8z M382.37,306.77c-0.08,0.68-0.01,1.38-0.01,2.07
			c0.01,1.18,0.03,2.37-0.24,3.53c-0.37,1.56-1.22,2.69-2.88,2.99c-1.59,0.29-2.95-0.21-3.93-1.48c-0.99-1.28-1.15-2.7-0.31-4.14
			c1.32-2.25,3.4-3.51,5.8-4.26C381.8,305.16,382.53,305.45,382.37,306.77z"/>
		<path class="st1" d="M241.53,324.86c-0.04-4.94-0.02-9.88-0.02-14.82c0-4.69-0.01-9.39,0-14.08c0-1.7-0.33-3.33-0.96-4.91
			c-3.6-9-15.32-13.54-24.54-9.4c-4.64,2.08-7.85,5.53-9.12,10.6c-0.29,1.15,0.02,1.58,1.28,1.56c3.75-0.07,7.51-0.04,11.27-0.01
			c0.71,0.01,1.17-0.18,1.59-0.79c0.76-1.11,1.84-1.78,3.25-1.74c0.76,0.02,1.55,0.09,1.92,0.85c0.41,0.83,0.14,1.63-0.39,2.35
			c-0.72,0.98-1.8,1.35-2.89,1.67c-2.12,0.64-4.28,1.18-6.39,1.83c-7.08,2.18-11.02,7.76-11.39,15.03
			c-0.42,8.25,9.96,16.59,18.61,11.82c0.43-0.24,0.89-0.43,1.35-0.61c0.75-0.29,1.4-0.37,1.27,0.77c-0.11,0.96,0.35,1.14,1.21,1.13
			c4.25-0.04,8.5-0.05,12.75,0.01C241.34,326.15,241.53,325.79,241.53,324.86z M226.1,306.61c-0.09,0.78-0.02,1.58-0.02,2.36
			c-0.06,1.32,0.14,2.66-0.34,3.95c-0.8,2.14-2.86,3.06-5.03,2.2c-1.97-0.78-3.05-3.1-2.15-4.97c1.23-2.57,3.51-3.92,6.13-4.71
			C225.57,305.18,226.24,305.42,226.1,306.61z"/>
		<path class="st1" d="M261.12,320.64c0.43-0.57,0.26-1.24,0.26-1.86c0.01-20.89,0.01-41.78,0.01-62.67c0-0.69,0.08-1.37,0.12-2.06
			c0.29-0.73,0.89-1.25,1.48-1.95c-7.15,0-14.12,0-21.09,0c2.5,1.73,2.35,4.26,2.35,6.82c-0.03,20.04-0.01,40.09-0.03,60.13
			c0,2.25,0.87,4.02,2.64,5.34c2.96,2.19,6.24,2.72,9.65,1.37C258.81,324.84,260.7,323.34,261.12,320.64z"/>
		<path class="st1" d="M88.44,226.67c0,7.77-0.02,15.55-0.03,23.32c0,0.14,0,0.28,0,0.42c0.14,0.89,0.84,0.66,1.39,0.66
			c4.05,0,8.1-0.02,12.15-0.03c0.03-0.54,0.09-1.08,0.09-1.62c0-7.21,0.02-14.43-0.03-21.64c-0.01-1.06,0.24-1.44,1.38-1.41
			c4.2,0.07,8.4,0.08,12.6,0c1.22-0.02,1.57,0.28,1.59,1.53c0.13,7.36,0.38,14.71,0.52,22.07c0.02,1.11,0.34,1.43,1.44,1.39
			c2.02-0.07,4.05-0.07,6.07,0.04c1.11,0.06,1.43-0.24,1.42-1.37c-0.05-6.97,0.01-13.93-0.06-20.9c-0.02-1.71,0.26-3.15,1.4-4.49
			c1.11-1.31,1.17-2.9,0.42-4.45c-0.73-1.5-2.07-1.79-3.6-1.79c-11.81,0.02-23.62,0.01-35.43,0.01c-2.01,0-3.38,1.41-3.41,3.44
			c-0.03,1.5,0.81,2.6,1.62,3.72C88.58,225.75,88.44,226.25,88.44,226.67z"/>
		<path class="st1" d="M415.78,282.18c-1.16,0.48-1.4,0.24-1.25-0.84c0.16-1.2-0.25-1.61-1.53-1.58c-3.7,0.09-7.41,0.06-11.12,0.01
			c-0.98-0.01-1.37,0.18-1.36,1.28c0.04,14.33,0.03,28.66,0,42.99c0,1,0.31,1.22,1.25,1.21c3.95-0.05,7.91-0.06,11.86,0.01
			c1.05,0.02,1.21-0.41,1.23-1.28c0.13-4.98,0.31-9.97,0.45-14.95c0.13-4.53,0.23-9.05,0.36-13.87c1.17,0.89,2.1,1.51,3.3,1.62
			c4.78,0.47,8.01-2.16,8.53-6.94c0.32-2.88-0.12-5.51-2.76-7.15C421.89,280.92,418.8,280.94,415.78,282.18z"/>
		<path class="st1" d="M265.39,304.53c4.29-0.05,8.59-0.04,12.88,0c0.91,0.01,1.28-0.18,1.27-1.2c-0.06-4.39-0.03-8.78-0.03-13.17
			c0-0.89-0.12-1.76-0.45-2.61c-1.36-3.43-4.13-4.89-8.53-4.47c-3.86,0.37-6.4,3.11-6.43,6.96c-0.02,2.12,0,4.24,0,6.36
			c0,2.27,0.05,4.54-0.03,6.81C264.03,304.26,264.36,304.54,265.39,304.53z"/>
		<path class="st1" d="M278.24,307.51c-2.12,0.08-4.25,0.02-6.37,0.02c-2.07,0-4.15,0.06-6.22-0.02c-1.18-0.05-1.63,0.25-1.59,1.54
			c0.1,3.3,0.1,6.62,0.01,9.92c-0.08,2.91,1.15,5.05,3.59,6.49c2.56,1.5,5.26,1.78,7.89,0.28c2.51-1.44,3.95-3.65,3.96-6.64
			c0.01-3.41-0.02-6.81,0.03-10.22C279.56,307.87,279.32,307.47,278.24,307.51z"/>
		<path class="st1" d="M271.95,261.5c-4.93-0.05-8.32,3.3-8.56,8.07c-0.33,6.66,4.05,9.75,9.28,9.74c5.46,0.06,8.81-3.4,8.89-9.19
			C281.63,265.1,277.68,261.56,271.95,261.5z"/>
		<path class="st1" d="M359.27,323.99c0.01-11.07,0.01-22.13,0-33.2c0-0.68,0.05-1.39-0.3-2.03c-0.56-4.28-5.35-8.56-9.79-8.64
			c-3.31-0.06-6.62-0.09-9.93,0.02c-1.35,0.04-1.63-0.39-1.62-1.66c0.06-8.3,0.01-16.6,0.05-24.9c0-1-0.19-1.36-1.28-1.34
			c-3.9,0.07-7.81,0.05-11.71,0.01c-0.89-0.01-1.3,0.13-1.3,1.18c0.03,23.52,0.03,47.04,0,70.56c0,0.95,0.24,1.27,1.23,1.25
			c3.85-0.06,7.71-0.06,11.56,0c1.12,0.02,1.5-0.22,1.49-1.43c-0.05-10.03-0.03-20.06-0.02-30.09c0-2.21,1.09-3.37,3.29-3.52
			c2.9-0.21,4.32,1.1,4.32,4.04c0.01,9.88,0.01,19.76,0.01,29.65c0,0.66-0.23,1.38,0.94,1.36c4.25-0.08,8.5-0.07,12.74-0.09
			C359.54,324.89,359.27,324.37,359.27,323.99z"/>
		<path class="st1" d="M497.76,273.64h0.29c0.29,0,0.56,0.08,0.79,0.24c0.17,0.12,0.37,0.39,0.58,0.81l1.73,3.19h3.65l-1.56-3.03
			c-0.08-0.15-0.23-0.37-0.45-0.65c-0.23-0.28-0.4-0.46-0.52-0.55c-0.18-0.13-0.46-0.26-0.84-0.39c0.48-0.11,0.86-0.25,1.13-0.41
			c0.43-0.26,0.77-0.6,1.02-1.02c0.25-0.42,0.37-0.92,0.37-1.5c0-0.67-0.16-1.23-0.48-1.69c-0.32-0.46-0.75-0.78-1.28-0.95
			c-0.53-0.17-1.29-0.26-2.29-0.26h-5.38v10.45h3.24V273.64z M497.76,269.54h1.42c0.59,0,0.99,0.09,1.21,0.27
			c0.21,0.18,0.32,0.44,0.32,0.78c0,0.23-0.07,0.43-0.2,0.61c-0.14,0.18-0.31,0.29-0.52,0.33c-0.42,0.1-0.71,0.14-0.86,0.14h-1.36
			V269.54z"/>
		<path class="st1" d="M487.99,272.47c0,6.13,4.99,11.12,11.12,11.12c6.13,0,11.12-4.99,11.12-11.12s-4.99-11.12-11.12-11.12
			C492.98,261.35,487.99,266.34,487.99,272.47z M499.12,263.21c5.11,0,9.26,4.16,9.26,9.26c0,5.11-4.16,9.26-9.26,9.26
			c-5.11,0-9.26-4.16-9.26-9.26C489.85,267.37,494.01,263.21,499.12,263.21z"/>
	</g>
</g>
</svg>
