<?xml version="1.0" encoding="utf-8"?>
<!-- Generator: Adobe Illustrator 28.3.0, SVG Export Plug-In . SVG Version: 6.00 Build 0)  -->
<svg version="1.1" id="Capa_1" xmlns="http://www.w3.org/2000/svg" xmlns:xlink="http://www.w3.org/1999/xlink" x="0px" y="0px"
	 viewBox="0 0 566.93 566.93" style="enable-background:new 0 0 566.93 566.93;" xml:space="preserve">
<style type="text/css">
	.st0{fill:#0071B2;}
	.st1{fill:#FFFFFF;}
	.st2{fill:#EF1615;}
	.st3{fill:url(#SVGID_1_);}
	.st4{fill:url(#SVGID_00000000906493814430808250000004045487069694241972_);}
	.st5{fill:#78B24E;}
	.st6{fill:#78B34E;}
	.st7{fill:#7CB253;}
	.st8{fill:#85AD62;}
	.st9{fill:#87AE64;}
	.st10{fill:#00578C;}
	.st11{fill:#77B34D;}
	.st12{fill:#78B34F;}
	.st13{fill:#79B24D;}
	.st14{fill:#7AB24D;}
	.st15{fill:#79B24E;}
	.st16{fill:#78B34D;}
	.st17{fill:#78B24F;}
	.st18{fill:#7BB24E;}
	.st19{fill:#7AB24E;}
	.st20{fill:#7BB150;}
	.st21{fill:#79B251;}
	.st22{fill:#7AB34C;}
	.st23{fill:#77B34E;}
	.st24{fill:#79B34D;}
	.st25{fill:#7AB34D;}
	.st26{fill:#7BB351;}
	.st27{fill:#7CB256;}
	.st28{fill:#7EB156;}
	.st29{fill:#80B158;}
	.st30{fill:#7DB357;}
	.st31{fill:#83B359;}
	.st32{fill:#81AD5A;}
	.st33{fill:#8BAE76;}
	.st34{fill:#8DAE70;}
	.st35{fill:#90AC6F;}
	.st36{fill:#89AA73;}
	.st37{fill:#05578C;}
	.st38{fill:#03578E;}
	.st39{opacity:0.42;}
	.st40{fill:#936757;}
	.st41{fill:#7C5B49;}
	.st42{fill:#6E4F41;}
	.st43{fill:#7F5E4D;}
	.st44{opacity:0.43;fill:#D6CBC4;}
	.st45{fill:#4F382E;}
	.st46{fill:#EBCDBA;}
	.st47{fill:#E8CDB9;}
	.st48{fill:url(#SVGID_00000161592156296378403690000013414921508505806727_);}
	.st49{opacity:0.55;}
	.st50{opacity:0.76;}
	.st51{opacity:0.66;fill:url(#SVGID_00000093880198843222977720000012108092715162545298_);}
	.st52{opacity:0.61;fill:url(#SVGID_00000047057502946903657780000008329338936332115586_);}
	.st53{opacity:0.66;fill:url(#SVGID_00000084514246691112545390000000591937596774049978_);}
	.st54{opacity:0.61;fill:url(#SVGID_00000137099328043841462770000001415295645250565280_);}
	.st55{opacity:0.66;fill:url(#SVGID_00000104687850095799368800000014741911064894702265_);}
	.st56{opacity:0.61;fill:url(#SVGID_00000055706356950512363520000011347410102977687475_);}
	.st57{opacity:0.66;fill:url(#SVGID_00000034796452283175507010000006351815871817540239_);}
	.st58{opacity:0.61;fill:url(#SVGID_00000134227073320209231030000012175960849438449341_);}
	.st59{opacity:0.66;fill:url(#SVGID_00000065032978779029577320000000255208668144323466_);}
	.st60{opacity:0.61;fill:url(#SVGID_00000101066165586916174680000014517557922785739179_);}
	.st61{opacity:0.66;fill:url(#SVGID_00000007385971328307606910000007194641493785953204_);}
	.st62{opacity:0.61;fill:url(#SVGID_00000031201679206278263420000012539853459252369339_);}
	.st63{opacity:0.66;fill:url(#SVGID_00000173139059079783087590000001242394770401109665_);}
	.st64{opacity:0.61;fill:url(#SVGID_00000112618981209973911940000017949266583989962655_);}
	.st65{opacity:0.66;fill:url(#SVGID_00000069361332904114187470000014270265198064080286_);}
	.st66{opacity:0.61;fill:url(#SVGID_00000177447927314042589480000002225888575674443191_);}
	.st67{opacity:0.66;fill:url(#SVGID_00000072965324085049415600000006563677142204705665_);}
	.st68{opacity:0.61;fill:url(#SVGID_00000051381319932956301150000017760525090944744616_);}
	.st69{opacity:0.66;fill:url(#SVGID_00000009567941248131354940000017496999519044415631_);}
	.st70{opacity:0.61;fill:url(#SVGID_00000177452169453075034730000009348430057064829322_);}
	.st71{opacity:0.66;fill:url(#SVGID_00000121994903162147442750000010994101945048186538_);}
	.st72{opacity:0.61;fill:url(#SVGID_00000039107658880329235000000018319230300413181607_);}
	.st73{opacity:0.66;fill:url(#SVGID_00000127757714564891492910000018189450936162951077_);}
	.st74{opacity:0.61;fill:url(#SVGID_00000183941461808505971980000010742276019383675320_);}
	.st75{opacity:0.66;fill:url(#SVGID_00000067212775435088459880000009207335632271454108_);}
	.st76{opacity:0.61;fill:url(#SVGID_00000127747113840745177990000014102611659594230200_);}
	.st77{opacity:0.66;fill:url(#SVGID_00000116236828908263400560000000083879464936734339_);}
	.st78{opacity:0.61;fill:url(#SVGID_00000098942823812741733280000007070846120862783422_);}
	.st79{opacity:0.66;fill:url(#SVGID_00000096767247368495496480000002604596003093603229_);}
	.st80{opacity:0.61;fill:url(#SVGID_00000075148495130011141160000004454757957359987095_);}
	.st81{opacity:0.66;fill:url(#SVGID_00000083051727350387309610000000268213464637542274_);}
	.st82{opacity:0.61;fill:url(#SVGID_00000072974636205173182870000010349194784377808532_);}
	.st83{opacity:0.66;fill:url(#SVGID_00000165913686130536126020000015052143136564125330_);}
	.st84{opacity:0.61;fill:url(#SVGID_00000010290553749547061840000010569991682753148548_);}
	.st85{opacity:0.66;fill:url(#SVGID_00000183229265928824076040000011170050285713968043_);}
	.st86{opacity:0.61;fill:url(#SVGID_00000163785766032022592730000004049888618186295475_);}
	.st87{fill:#A6CA56;}
	.st88{fill:#0076B3;}
	.st89{fill:none;stroke:#0076B3;stroke-width:0.0208;stroke-miterlimit:10;}
	.st90{opacity:0.12;}
	.st91{fill-rule:evenodd;clip-rule:evenodd;fill:#0076B3;stroke:#0076B3;stroke-width:0.104;stroke-miterlimit:3.8637;}
	.st92{fill-rule:evenodd;clip-rule:evenodd;fill:#C4DA8F;}
	.st93{fill-rule:evenodd;clip-rule:evenodd;fill:#FFFFFF;}
	.st94{fill:#573734;}
	.st95{fill:#8A6552;}
	.st96{opacity:0.33;fill:#6E4F41;}
	.st97{fill:#010101;}
	.st98{fill:#5C4436;}
	.st99{fill:#735345;}
	.st100{opacity:0.21;fill:#B5806B;}
	.st101{fill:#64483B;}
	.st102{fill:#D9C0AE;}
	.st103{fill:#1D1D1C;}
	.st104{fill:#EFE0CE;}
	.st105{opacity:0.6;fill:#7C3B11;}
	.st106{fill:#70554F;}
	.st107{fill:#F08588;}
	.st108{fill:#2E2E2D;}
	.st109{fill:#593A30;}
	.st110{clip-path:url(#SVGID_00000159458142500777201020000014653801743415657088_);fill:#FFFFFF;}
	.st111{clip-path:url(#SVGID_00000159458142500777201020000014653801743415657088_);}
</style>
<g>
	<rect class="st0" width="566.93" height="566.93"/>
	<rect x="28.35" y="28.35" class="st1" width="510.24" height="510.24"/>
	<g>
		<g>
			<path class="st0" d="M97.86,326.22c-6.21,0-11.48-0.59-15.67-1.77c-4.31-1.21-8.09-3.2-11.22-5.92c-3.1-2.7-5.57-5.91-7.34-9.56
				c-1.78-3.68-2.68-8.54-2.68-14.45c0-6.18,1.09-11.43,3.24-15.62c3.17-6.18,11.56-16.55,32.11-16.55
				c12.32,0,28.34,4.36,34.72,25.13c0.19,0.62,0.1,1.29-0.25,1.83c-0.35,0.54-0.92,0.91-1.56,1l-25.08,3.46
				c-1.1,0.14-2.14-0.54-2.43-1.62c-1.15-4.35-3.58-4.79-5.56-4.68c-2.24,0.12-4.8,2.8-5.04,6.93c-0.22,3.8,2.24,7.99,5.06,8.62
				c2.45,0.55,5.02-2.03,7.04-7.07c0.37-0.91,1.28-1.47,2.27-1.37l24.67,2.54c0.64,0.07,1.22,0.41,1.59,0.94
				c0.37,0.53,0.48,1.19,0.32,1.81c-1.13,4.26-4.07,11.9-7.06,15.54c-2.82,3.42-6.46,6.11-10.81,7.98
				C109.87,325.27,104.38,326.22,97.86,326.22z M96.31,266.77c-13.5,0-23.51,5.03-28.19,14.16c-1.83,3.56-2.76,8.14-2.76,13.6
				c0,5.24,0.75,9.45,2.24,12.53c1.5,3.1,3.61,5.85,6.26,8.15c2.63,2.29,5.83,3.97,9.51,5c3.8,1.06,8.68,1.6,14.48,1.6
				c5.92,0,10.82-0.82,14.58-2.44c3.71-1.6,6.79-3.87,9.16-6.74c1.82-2.2,4.07-7.22,5.46-11.38l-20.41-2.1
				c-3.9,8.43-8.78,8.78-11.43,8.19c-4.95-1.11-8.84-7.13-8.5-13.17c0.34-5.96,4.38-10.82,9.2-11.08c4.45-0.24,7.73,1.91,9.43,6.08
				l20.63-2.84C121.12,273.34,111.15,266.77,96.31,266.77z"/>
		</g>
		<g>
			<g>
				<path class="st0" d="M165.03,324.27c-9.32,0-17.01-2.44-22.84-7.24c-7.2-5.98-10.85-13.9-10.85-23.56
					c0-8.97,3.09-16.49,9.17-22.33c6.06-5.82,14.29-8.77,24.47-8.77c11.62,0,20.58,3.47,26.62,10.33
					c4.87,5.54,7.34,12.43,7.34,20.47c0,9.04-3.06,16.57-9.09,22.38C183.83,321.33,175.48,324.27,165.03,324.27z M164.98,266.77
					c-9,0-16.21,2.54-21.42,7.54c-5.26,5.05-7.82,11.32-7.82,19.16c0,8.4,3.03,15,9.25,20.16c5.02,4.13,11.76,6.23,20.04,6.23
					c9.28,0,16.6-2.52,21.76-7.49c5.21-5.02,7.74-11.3,7.74-19.21c0-7.04-2.04-12.78-6.24-17.56
					C183.13,269.74,175.28,266.77,164.98,266.77z M165.12,305.54c-2.7,0-5.06-1.11-6.83-3.2c-1.73-2.05-2.57-4.96-2.57-8.91
					c0-3.85,0.87-6.82,2.59-8.85c1.78-2.11,4.18-3.22,6.92-3.22c2.63,0,4.95,1.1,6.71,3.19c1.69,2,2.55,4.95,2.55,8.75
					c0,4.09-0.83,7.06-2.53,9.08C170.21,304.44,167.85,305.54,165.12,305.54z M165.23,285.76c-1.47,0-2.6,0.53-3.56,1.66
					c-1.03,1.21-1.55,3.23-1.55,6.01c0,2.82,0.51,4.87,1.53,6.07c0.95,1.12,2.05,1.64,3.47,1.64c1.44,0,2.54-0.51,3.47-1.61
					c0.98-1.16,1.5-3.32,1.5-6.25c0-2.73-0.51-4.72-1.51-5.91C167.64,286.27,166.58,285.76,165.23,285.76z"/>
			</g>
			<g>
				<path class="st0" d="M225.04,323.02h-21.13c-1.22,0-2.2-0.99-2.2-2.2v-37.37h-5.67c-1.22,0-2.2-0.99-2.2-2.2v-15.44
					c0-1.22,0.99-2.2,2.2-2.2h5.67v-0.29c0-2.37,0.26-4.99,0.76-7.8c0.54-3.03,1.6-5.58,3.15-7.57c1.55-1.99,3.72-3.61,6.45-4.81
					c2.71-1.19,6.45-1.77,11.43-1.77c3.81,0,9.16,0.43,16.38,1.31c0.6,0.07,1.15,0.39,1.51,0.88c0.36,0.49,0.5,1.1,0.39,1.7
					l-2.33,12.74c-0.22,1.18-1.33,1.98-2.52,1.78c-2.4-0.39-4.33-0.59-5.76-0.59c-1.95,0-2.6,0.38-2.75,0.5
					c-0.42,0.33-0.75,0.94-0.97,1.82c-0.04,0.16-0.12,0.69-0.16,2.08h7.82c1.22,0,2.2,0.99,2.2,2.2v15.44c0,1.22-0.99,2.2-2.2,2.2
					h-7.85v37.37C227.25,322.04,226.26,323.02,225.04,323.02z M206.11,318.62h16.73v-37.37c0-1.22,0.99-2.2,2.2-2.2h7.85v-11.03
					h-7.85c-1.22,0-2.2-0.99-2.2-2.2c0-3.49,0.17-4.67,0.31-5.31c0.48-1.91,1.33-3.34,2.56-4.28c1.24-0.95,3.02-1.42,5.44-1.42
					c1.21,0,2.64,0.11,4.33,0.33l1.53-8.34c-5.81-0.67-10.35-1-13.52-1c-4.3,0-7.55,0.47-9.66,1.39c-2.05,0.9-3.65,2.07-4.74,3.48
					c-1.1,1.42-1.87,3.32-2.29,5.64c-0.46,2.55-0.69,4.91-0.69,7.02v2.49c0,1.22-0.99,2.2-2.2,2.2h-5.67v11.03h5.67
					c1.22,0,2.2,0.99,2.2,2.2V318.62z"/>
			</g>
			<g>
				<path class="st0" d="M264.8,324.27c-7.59,0-13.7-1.11-18.17-3.31c-4.54-2.23-8.34-5.8-11.29-10.61
					c-2.95-4.8-4.44-10.5-4.44-16.93c0-9.18,3.01-16.73,8.93-22.46c5.91-5.7,14.1-8.59,24.35-8.59c8.2,0,14.81,1.29,19.67,3.82
					c4.94,2.58,8.76,6.38,11.34,11.28c2.54,4.83,3.83,11.11,3.83,18.69v2.38c0,1.22-0.99,2.2-2.2,2.2h-39.67c0.4,1.69,1,3,1.8,3.91
					c1.63,1.91,3.69,2.82,6.32,2.82c1.71,0,3.29-0.42,4.84-1.28c0.86-0.5,1.89-1.48,3.02-2.91c0.46-0.58,1.19-0.9,1.93-0.83
					l20.77,1.92c0.75,0.07,1.41,0.51,1.75,1.18c0.34,0.67,0.33,1.46-0.05,2.11c-3.37,5.86-7.53,10.14-12.37,12.73
					C280.37,322.97,273.52,324.27,264.8,324.27z M264.18,266.77c-9.07,0-16.23,2.48-21.29,7.36c-5.11,4.93-7.59,11.24-7.59,19.29
					c0,5.6,1.28,10.52,3.79,14.62c2.51,4.09,5.7,7.11,9.48,8.96c3.86,1.9,9.32,2.86,16.23,2.86c7.98,0,14.14-1.12,18.28-3.34
					c3.26-1.75,6.2-4.46,8.75-8.09l-16.03-1.48c-1.22,1.4-2.38,2.42-3.53,3.08c-2.22,1.23-4.56,1.85-7,1.85
					c-3.94,0-7.19-1.46-9.65-4.35c-1.75-2-2.82-4.87-3.26-8.75c-0.07-0.62,0.13-1.25,0.55-1.71s1.01-0.73,1.64-0.73h40.07v-0.18
					c0-6.85-1.12-12.45-3.32-16.64c-2.16-4.1-5.35-7.27-9.48-9.44C277.59,267.89,271.66,266.77,264.18,266.77z M272.58,289.12h-15.2
					c-0.62,0-1.22-0.27-1.64-0.73c-0.42-0.46-0.62-1.08-0.55-1.7c0.3-2.84,1.03-4.97,2.23-6.53c1.86-2.46,4.49-3.78,7.62-3.78
					c2.71,0,4.96,0.86,6.68,2.57c1.69,1.68,2.69,4.21,3.05,7.75c0.06,0.62-0.14,1.24-0.56,1.7
					C273.8,288.86,273.21,289.12,272.58,289.12z M260.03,284.72h9.93c-0.32-1.18-0.77-2.08-1.34-2.64c-0.88-0.87-2.05-1.3-3.59-1.3
					c-1.76,0-3.07,0.65-4.11,2.04C260.57,283.29,260.27,283.93,260.03,284.72z"/>
			</g>
			<g>
				<path class="st0" d="M321.66,324.27c-8.22,0-14.61-3.19-18.98-9.49c-4.2-6.05-6.32-13.46-6.32-22.03c0-9.63,2.4-17.17,7.12-22.4
					c4.78-5.29,10.94-7.98,18.29-7.98c3.56,0,6.85,0.61,9.77,1.82c1.43,0.59,2.8,1.33,4.08,2.22v-21.52c0-1.22,0.99-2.2,2.2-2.2
					h21.29c1.22,0,2.2,0.99,2.2,2.2v75.94c0,1.22-0.99,2.2-2.2,2.2h-19.73c-1.22,0-2.2-0.99-2.2-2.2v-2.43
					c-1.5,1.42-2.93,2.49-4.33,3.23C329.49,323.38,325.73,324.27,321.66,324.27z M321.76,266.77c-6.14,0-11.05,2.13-15.02,6.53
					c-3.97,4.4-5.98,10.94-5.98,19.45c0,7.66,1.86,14.22,5.54,19.52c3.55,5.12,8.58,7.6,15.36,7.6c3.35,0,6.42-0.72,9.13-2.13
					c1.99-1.05,4.3-3.22,6.86-6.42c0.58-0.73,1.57-1.01,2.45-0.7c0.88,0.31,1.47,1.14,1.47,2.08v5.93h15.33v-71.53h-16.89v24.11
					c0,0.9-0.55,1.72-1.39,2.05c-0.84,0.33-1.8,0.12-2.42-0.54c-1.84-1.97-3.98-3.46-6.36-4.44
					C327.46,267.27,324.74,266.77,321.76,266.77z M328.61,305.59c-2.55,0-4.79-1.1-6.49-3.17c-1.64-2-2.43-4.89-2.43-8.83
					c0-4.18,0.78-7.16,2.37-9.12c1.66-2.04,3.86-3.12,6.35-3.12c2.77,0,5.09,1.06,6.9,3.17c1.73,2,2.6,4.94,2.6,8.72
					c0,4.17-0.84,7.18-2.56,9.2C333.6,304.5,331.27,305.59,328.61,305.59z M328.42,285.76c-1.18,0-2.11,0.47-2.94,1.49
					c-0.63,0.77-1.38,2.5-1.38,6.34c0,2.81,0.5,4.9,1.43,6.04c0.87,1.06,1.85,1.56,3.08,1.56c1.38,0,2.47-0.51,3.4-1.61
					c0.98-1.15,1.5-3.35,1.5-6.34c0-2.7-0.52-4.66-1.54-5.84C331.02,286.28,329.89,285.76,328.42,285.76z"/>
			</g>
			<g>
				<path class="st0" d="M388.04,323.02h-21.19c-1.22,0-2.2-0.99-2.2-2.2v-55.01c0-1.22,0.99-2.2,2.2-2.2h19.73
					c1.22,0,2.2,0.99,2.2,2.2v1.4c0.77-0.89,1.57-1.63,2.38-2.23c4.81-3.49,12.04-3.64,20,0.53c1.02,0.53,1.46,1.77,1,2.83
					l-6.53,15.02c-0.48,1.1-1.76,1.62-2.87,1.16c-2.75-1.14-4.27-1.38-5.06-1.38c-2.02,0-3.48,0.78-4.59,2.44
					c-1.32,1.96-2.89,6.45-2.89,16.81v18.44C390.25,322.04,389.26,323.02,388.04,323.02z M369.06,318.62h16.78v-16.24
					c0-9.34,1.19-15.64,3.64-19.26c1.91-2.87,4.76-4.39,8.25-4.39c1.31,0,2.87,0.31,4.72,0.95l4.85-11.15
					c-2.65-1.17-5.12-1.76-7.34-1.76c-2.52,0-4.54,0.58-6.19,1.78c-1.72,1.25-3.46,3.68-5.19,7.24c-0.45,0.92-1.47,1.41-2.47,1.18
					c-1-0.23-1.71-1.12-1.71-2.15v-6.81h-15.33V318.62z"/>
			</g>
			<g>
				<path class="st0" d="M430.29,323.02h-21.08c-1.22,0-2.2-0.99-2.2-2.2v-55.01c0-0.49,0.16-0.94,0.43-1.31
					c-0.27-0.37-0.43-0.82-0.43-1.31v-14.35c0-1.22,0.99-2.2,2.2-2.2h21.08c1.22,0,2.2,0.99,2.2,2.2v14.35
					c0,0.49-0.16,0.94-0.43,1.31c0.27,0.36,0.43,0.82,0.43,1.31v55.01C432.49,322.04,431.51,323.02,430.29,323.02z M411.41,318.62
					h16.68v-50.61h-16.68V318.62z M411.41,261h16.68v-9.95h-16.68V261z"/>
			</g>
			<g>
				<path class="st0" d="M496.63,323.02h-21.19c-1.22,0-2.2-0.99-2.2-2.2v-30.25c0-3.59-0.74-5.17-1.36-5.86
					c-0.85-0.95-2.07-1.41-3.75-1.41c-1.91,0-3.34,0.67-4.51,2.1c-0.86,1.05-1.88,3.46-1.88,9.02v26.42c0,1.22-0.99,2.2-2.2,2.2
					h-21.08c-1.22,0-2.2-0.99-2.2-2.2v-55.01c0-1.22,0.99-2.2,2.2-2.2h19.63c1.22,0,2.2,0.99,2.2,2.2v3.31
					c1.87-1.76,3.78-3.15,5.69-4.15c3.31-1.73,7.35-2.61,12-2.61c6.44,0,11.58,1.98,15.3,5.89c3.68,3.88,5.55,9.8,5.55,17.6v34.96
					C498.83,322.04,497.84,323.02,496.63,323.02z M477.64,318.62h16.78v-32.76c0-6.64-1.46-11.54-4.34-14.57
					c-2.89-3.04-6.85-4.52-12.11-4.52c-3.94,0-7.29,0.71-9.96,2.11c-2.72,1.42-5.48,3.87-8.21,7.27c-0.58,0.73-1.57,1.01-2.45,0.7
					c-0.88-0.31-1.47-1.14-1.47-2.08v-6.76h-15.23v50.61h16.68v-24.22c0-5.58,0.94-9.45,2.88-11.81c2.02-2.46,4.68-3.71,7.92-3.71
					c2.96,0,5.32,0.97,7.03,2.89c1.67,1.87,2.48,4.74,2.48,8.79V318.62z"/>
			</g>
		</g>
		<g>
			<g>
				<path class="st0" d="M491.68,255.78v-9.49h4.03c1.01,0,1.75,0.09,2.21,0.26c0.46,0.17,0.83,0.47,1.1,0.91
					c0.28,0.44,0.41,0.93,0.41,1.5c0,0.71-0.21,1.3-0.63,1.76c-0.42,0.46-1.04,0.76-1.88,0.88c0.41,0.24,0.76,0.51,1.03,0.8
					c0.27,0.29,0.63,0.8,1.09,1.54l1.16,1.85h-2.29l-1.39-2.06c-0.49-0.74-0.83-1.2-1.01-1.4c-0.18-0.19-0.37-0.32-0.58-0.39
					c-0.2-0.07-0.52-0.11-0.96-0.11h-0.39v3.96H491.68z M493.6,250.3h1.42c0.92,0,1.49-0.04,1.72-0.12c0.23-0.08,0.41-0.21,0.54-0.4
					c0.13-0.19,0.19-0.43,0.19-0.71c0-0.32-0.09-0.58-0.26-0.77c-0.17-0.2-0.41-0.32-0.72-0.37c-0.16-0.02-0.62-0.03-1.4-0.03h-1.5
					V250.3z"/>
			</g>
		</g>
		<g>
			<path class="st0" d="M495.52,261.61c-5.76,0-10.45-4.69-10.45-10.45c0-5.76,4.69-10.45,10.45-10.45
				c5.76,0,10.45,4.69,10.45,10.45C505.98,256.93,501.29,261.61,495.52,261.61z M495.52,242.47c-4.79,0-8.69,3.9-8.69,8.69
				s3.9,8.69,8.69,8.69s8.69-3.9,8.69-8.69S500.32,242.47,495.52,242.47z"/>
		</g>
	</g>
</g>
</svg>
